<svg width="800" height="600" viewBox="0 0 800 600" xmlns="http://www.w3.org/2000/svg">
  <!-- Background Circle -->
  <circle cx="400" cy="300" r="250" fill="#f0f9ff" stroke="#4285F4" stroke-width="2"/>
  
  <!-- Magnifying Glass -->
  <g transform="translate(300,250) scale(0.8)">
    <circle cx="100" cy="100" r="70" fill="none" stroke="#4285F4" stroke-width="25"/>
    <line x1="150" y1="150" x2="250" y2="250" stroke="#4285F4" stroke-width="25" stroke-linecap="round"/>
  </g>
  
  <!-- Strategy Elements -->
  <g transform="translate(450,250)">
    <!-- Gear -->
    <path d="M50 0c-3.3 0-6 2.7-6 6v4.7c-4.5 1.3-8.7 3.3-12.5 5.8l-4.1-2.4c-2.9-1.7-6.6-0.7-8.3 2.2l-5 8.7c-1.7 2.9-0.7 6.6 2.2 8.3l4.1 2.4c-0.5 2.3-0.8 4.7-0.8 7.2s0.3 4.9 0.8 7.2l-4.1 2.4c-2.9 1.7-3.9 5.4-2.2 8.3l5 8.7c1.7 2.9 5.4 3.9 8.3 2.2l4.1-2.4c3.8 2.5 8 4.5 12.5 5.8v4.7c0 3.3 2.7 6 6 6h10c3.3 0 6-2.7 6-6v-4.7c4.5-1.3 8.7-3.3 12.5-5.8l4.1 2.4c2.9 1.7 6.6 0.7 8.3-2.2l5-8.7c1.7-2.9 0.7-6.6-2.2-8.3l-4.1-2.4c0.5-2.3 0.8-4.7 0.8-7.2s-0.3-4.9-0.8-7.2l4.1-2.4c2.9-1.7 3.9-5.4 2.2-8.3l-5-8.7c-1.7-2.9-5.4-3.9-8.3-2.2l-4.1 2.4c-3.8-2.5-8-4.5-12.5-5.8V6c0-3.3-2.7-6-6-6H50z" fill="#4285F4"/>
    <circle cx="55" cy="50" r="20" fill="white"/>
  </g>
  
  <!-- Connection Lines -->
  <g stroke="#4285F4" stroke-width="2" stroke-dasharray="5,5">
    <line x1="300" y1="300" x2="500" y2="300"/>
    <line x1="400" y1="200" x2="400" y2="400"/>
  </g>
</svg>