<svg width="800" height="689" viewBox="0 0 800 689" fill="none" xmlns="http://www.w3.org/2000/svg">
<g clip-path="url(#clip0_476_1633)">
<rect width="800" height="800" transform="translate(0 -111)" fill="white"/>
<g filter="url(#filter0_f_476_1633)">
<circle cx="340.595" cy="99.9047" r="141.858" fill="black"/>
<circle cx="430.248" cy="199.705" r="167.571" transform="rotate(-165 430.248 199.705)" fill="black"/>
<circle cx="184.586" cy="184.586" r="184.586" transform="matrix(0.998118 0.0613208 0.0613208 -0.998118 55.7324 435.424)" fill="black"/>
<circle cx="131.145" cy="131.145" r="131.145" transform="matrix(0.976166 0.217027 0.217027 -0.976166 277.63 368.078)" fill="black"/>
<circle cx="406.442" cy="209.567" r="154.4" fill="black"/>
<circle cx="73.7785" cy="73.7785" r="73.7785" transform="matrix(-0.879513 0.475874 0.475874 0.879513 695.917 424.513)" fill="black"/>
<ellipse cx="652.377" cy="527.125" rx="94.0679" ry="98.3631" transform="rotate(-130.426 652.377 527.125)" fill="black"/>
</g>
<g style="mix-blend-mode:color-dodge">
<rect y="-111" width="800" height="800" fill="#878787"/>
</g>
<g style="mix-blend-mode:color-burn">
<rect y="-111" width="800" height="800" fill="white"/>
</g>
<g style="mix-blend-mode:screen">
<rect width="1060" height="1060" transform="translate(-130 -241)" fill="url(#paint0_linear_476_1633)"/>
</g>
</g>
<defs>
<filter id="filter0_f_476_1633" x="-44.2676" y="-210.475" width="957.482" height="972.994" filterUnits="userSpaceOnUse" color-interpolation-filters="sRGB">
<feFlood flood-opacity="0" result="BackgroundImageFix"/>
<feBlend mode="normal" in="SourceGraphic" in2="BackgroundImageFix" result="shape"/>
<feGaussianBlur stdDeviation="50" result="effect1_foregroundBlur_476_1633"/>
</filter>
<linearGradient id="paint0_linear_476_1633" x1="530" y1="337.875" x2="530" y2="781.75" gradientUnits="userSpaceOnUse">
<stop stop-color="#F7971E"/>
<stop offset="1" stop-color="#FFD200"/>
</linearGradient>
<clipPath id="clip0_476_1633">
<rect width="800" height="800" fill="white" transform="translate(0 -111)"/>
</clipPath>
</defs>
</svg>
