<svg width="496" height="124" viewBox="0 0 496 124" fill="none" xmlns="http://www.w3.org/2000/svg">
<path d="M0.871919 121.599C50.7751 121.043 100.614 123.406 150.5 123.265C175.351 123.197 200.174 122.186 225.018 121.498C249.931 120.806 274.846 120.131 299.761 119.475C313.387 119.107 326.982 118.885 340.611 118.949C354.24 119.013 367.883 118.949 381.39 116.693C385.039 116.09 388.404 112.96 390.552 110.152C391.462 108.961 394.615 104.136 391.459 103.536C381.495 101.648 371.386 100.933 361.277 100.32C351.247 99.7126 341.219 99.0629 331.194 98.3706C310.433 96.9342 289.629 96.0474 268.842 95.0594C227.446 93.0936 186.026 91.7045 144.64 89.6342C124.665 88.6226 103.969 90.73 84.4867 85.2508L75.1669 97.4298C83.2222 95.8383 91.4124 95.9766 99.5689 96.479C107.911 96.9915 116.226 97.612 124.578 97.9053C142.592 98.5347 160.608 99.1551 178.625 99.7666C214.781 101.055 250.934 103.614 287.107 104.278C306.519 104.635 325.964 104.13 345.241 106.874L356.324 92.3923C342.415 95.427 328.085 93.3061 314.038 92.7464C297.442 92.072 280.802 92.0349 264.199 91.5325C247.259 91.02 230.322 90.3557 213.382 89.8466C196.647 89.3475 179.896 89.2532 163.168 88.6328C150.693 88.1674 137.043 84.1414 126.331 92.8812C123.758 94.9785 121.432 97.1871 119.77 100.09C119.014 101.402 117.409 104.248 118.943 105.647C122.774 109.167 128.479 110.266 133.463 110.927C138.52 111.602 143.622 111.693 148.713 112.003C165.347 113.014 181.956 114.427 198.617 115.257C215.874 116.12 233.147 116.943 250.418 117.465C267.409 117.995 284.413 117.954 301.407 118.275C320.491 118.632 339.593 119.448 358.522 122.034L374.62 103.324C342.415 100.137 310.16 97.4872 277.878 95.1842C245.809 92.8947 213.706 91.0672 181.602 89.2497C163.453 88.218 145.294 87.3323 127.127 86.5928C121.297 86.3534 115.605 91.0638 112.078 95.3596C110.298 97.5209 108.312 100.023 107.773 102.842C107.503 104.271 107.604 106.804 109.657 106.888C145.375 108.594 181.073 106.595 216.791 106.058C252.509 105.522 288.311 105.988 324.072 104.71C326.23 104.632 328.385 104.555 330.546 104.531C331.44 104.531 332.337 104.531 333.244 104.531H334.805C335.142 104.531 335.999 104.531 335.186 104.531C339.907 104.565 344.627 104.652 349.348 104.568C358.452 104.406 367.343 103.432 375.985 100.32C380.706 98.6167 385.049 94.5874 388.023 90.6862C389.265 89.149 390.256 87.4249 390.96 85.5779C391.32 84.5663 392.167 81.8183 390.841 81.0225C385.757 77.9642 380.251 76.5043 374.39 75.813C371.271 75.4367 368.134 75.2318 364.993 75.1993C363.216 75.1993 364.056 75.1993 364.454 75.1993C364.116 75.1993 363.756 75.1656 363.408 75.1522C362.599 75.1184 361.789 75.0903 360.977 75.0679C359.507 75.0274 358.037 75.0004 356.567 74.9768C342.23 74.7408 327.906 73.6281 313.599 72.9537C280.893 71.3622 248.186 70.0944 215.479 68.5231C197.15 67.6442 178.823 66.7708 160.498 65.9032L144.158 87.2536C176.865 83.9695 208.638 86.151 241.5 86.7141C258.891 87.0142 276.29 86.876 293.682 86.8996L319.031 86.9333C321.105 86.9333 323.179 86.9333 325.249 86.9333C325.404 86.9333 326.992 86.9671 325.741 86.9333C324.791 86.9064 325.384 86.9165 325.607 86.9333C325.913 86.9603 326.227 86.9603 326.534 86.9805C328.311 87.085 330.084 87.2503 331.858 87.3952C337.722 87.874 343.609 88.2989 349.496 88.1775C357.764 88.0056 364.669 85.1125 370.867 79.4815C372.89 77.6574 383.005 66.5135 376.204 64.2341C370.425 62.2987 364.305 61.8468 358.256 61.5939C351.789 61.3208 345.811 61.0308 338.524 60.5824C323.826 59.6821 309.122 58.8628 294.417 58.0097C265.493 56.3238 236.634 53.7882 207.724 51.8325C199.679 51.2863 191.64 50.5748 183.585 50.1803C175.83 49.7993 168.105 49.4318 160.468 47.9583L146.056 69.4133C147.8 68.7861 144.168 69.7302 146.056 69.3762C146.751 69.2447 147.442 69.1064 148.144 69.012C149.882 68.7985 151.632 68.6859 153.383 68.6748C153.719 68.637 154.059 68.637 154.395 68.6748C155.166 68.695 155.938 68.7187 156.711 68.7457C158.316 68.8064 159.921 68.8839 161.53 68.9277C169.71 69.1469 177.92 68.7996 186.1 68.7625C202.218 68.6917 218.335 68.8333 234.449 68.9143C266.947 69.0761 299.429 68.7513 331.895 67.9398C341.08 67.7262 350.256 67.2947 359.423 66.645C359.895 66.5817 360.37 66.5468 360.846 66.5405C362.296 66.6282 360.08 66.4056 361.287 66.7226C362.106 66.9299 362.943 67.0619 363.786 67.1171C366.411 67.3277 369.051 66.9937 371.541 66.1359C378.892 63.7351 385.966 57.3691 389.934 50.8008C391.405 48.3764 394.857 42.4521 390.359 41.0225C384.229 39.0938 377.884 38.2778 371.501 37.7349C364.905 37.1752 358.313 36.5547 351.718 35.9916C338.531 34.8587 325.323 33.9483 312.116 33.1154C285.515 31.4295 258.912 30.364 232.288 29.1704C217.387 28.496 202.528 27.4036 187.732 25.4918L173.088 47.2906C173.763 47.0344 175.914 46.6635 173.328 47.085L174.636 46.7208C176.315 46.2465 176.377 46.2307 174.821 46.6736C175.786 46.1476 177.603 46.06 178.679 45.8914C181.486 45.4651 184.315 45.205 187.152 45.1125C192.514 44.8967 197.881 45.0754 203.243 44.8933C215.941 44.4617 228.633 43.912 241.344 43.5648C266.468 42.8904 291.585 42.5836 316.718 41.9261C331.093 41.5484 345.46 40.8302 359.75 39.2084C362.666 38.8712 366.126 36.747 368.351 35.0307C371.009 33.0133 373.389 30.6553 375.432 28.0173C377.347 25.512 382.105 18.4547 376.983 16.7014C372.893 15.2987 368.638 15.1301 364.359 14.948C359.881 14.7558 355.407 14.4321 350.932 14.1826C341.615 13.6566 332.296 13.1789 322.977 12.7496C304.452 11.8628 285.917 11.6942 267.388 10.976C257.044 10.5747 246.706 9.84982 236.418 8.63934L218.767 31.7027C229.496 30.4112 240.292 29.8852 251.096 29.7301C261.899 29.575 271.957 29.7301 283.465 29.7774C305.595 29.8954 327.66 28.9243 349.773 28.1622C362.248 27.734 375.011 27.4676 386.633 27.7475C393.418 27.9093 399.905 22.6358 404.039 17.6151C406.042 15.184 408.56 12.1696 409.016 8.95964C409.252 7.30407 409.282 4.37734 406.837 4.2627C392.264 3.58833 377.691 3.22752 363.152 1.95971L345.062 25.5996C352.726 24.2509 360.522 23.9339 368.291 23.9137H369.555C370.988 23.9137 368.399 23.8833 369.838 23.9137C370.83 23.9407 371.821 23.9475 372.812 23.9711C374.799 24.0183 376.787 24.0801 378.774 24.1565C382.854 24.3083 386.934 24.4937 391.017 24.6926C408.49 25.4816 425.99 25.2187 443.479 25.1748C448.031 25.1748 452.583 25.2253 457.833 25.4378C462.992 25.6502 468.185 25.9031 473.306 26.537C479.551 27.3091 486.318 21.2803 489.98 16.8328C491.383 15.1267 498.747 4.80215 492.657 4.04686C474.278 1.77087 456.012 1.23814 437.498 1.28872C435.333 1.28872 433.167 1.28872 431 1.28872C429.924 1.28872 428.845 1.28872 427.766 1.28872H426.384C426.159 1.30372 425.934 1.30372 425.71 1.28872C421.822 1.22465 417.938 1.08975 414.053 0.921159C405.742 0.563744 397.433 0.101826 389.102 0.0175301C379.66 -0.0768813 370.219 0.162486 360.903 1.92258C354.304 3.17354 348.377 8.53479 344.442 13.6802C342.924 15.6662 340.979 18.2929 340.618 20.8386C340.375 22.5448 340.355 25.3872 342.81 25.5592C357.389 26.6112 372.017 26.9753 386.613 27.7272L406.817 4.24245C383.686 3.56808 360.586 4.76842 337.475 5.55068C315.484 6.29249 293.507 5.62487 271.516 6.05983C259.04 6.30598 246.591 6.95338 234.23 8.59883C227.901 9.44517 221.832 15.2852 218.17 20.0631C216.787 21.8704 210.941 31.0823 216.578 31.6589C234.894 33.5302 253.331 33.8269 271.735 34.2282C290.418 34.6362 309.078 35.4926 327.741 36.4771C332.923 36.7536 338.103 37.0908 343.285 37.3505C348.127 37.5966 352.979 37.5764 357.622 39.1646L374.849 16.6576C349.354 19.5472 323.671 19.4528 298.052 19.8979C272.531 20.3429 246.982 20.9667 221.478 22.0659C208.523 22.6223 195.336 21.2129 183.015 26.1763C177.512 28.3916 171.972 33.075 168.803 38.1226C167.768 39.7681 166.739 41.5585 166.284 43.4703C165.913 45.0281 166.217 47.7526 168.371 47.9718C194.924 50.7097 221.67 51.1548 248.321 52.2675C275.026 53.3914 301.716 55.0391 328.392 57.2106C335.81 57.8074 343.262 58.2795 350.646 59.1932C357.602 60.0564 364.538 60.9634 371.18 63.3069L371.605 53.5285L371.268 54.0478C373.596 50.7299 376.593 47.9355 380.065 45.8441L381.984 44.8697C383.697 44.4448 384.008 44.32 382.918 44.4954C381.363 44.8326 384.202 44.9371 382.516 44.4246C381.842 44.2223 381.063 44.0874 380.379 43.9391C376.245 43.0759 371.275 44.1481 367.033 44.401C359.109 44.8764 351.185 45.1394 343.251 45.3417C327.69 45.743 312.136 46.1274 296.572 46.296C265.51 46.6332 234.452 46.2353 203.394 46.4073C198.964 46.4297 194.533 46.4713 190.103 46.532C187.888 46.5634 185.673 46.5994 183.457 46.6399L180.911 46.6837C182.887 46.6534 179.872 46.6534 179.529 46.6433C171.473 46.387 163.522 45.8071 155.804 48.5956C150.409 50.5411 144.846 55.5247 141.811 60.3531C140.503 62.4403 136.753 69.1705 141.39 70.0505C148.535 71.3993 154.931 71.4263 162.386 71.4971C169.642 71.5645 176.905 71.7229 184.151 72.1343C198.859 72.9683 213.562 73.8888 228.258 74.8959C257.148 76.8358 286.034 78.8386 314.914 80.9044C322.498 81.4541 330.088 82.0644 337.657 82.5904C344.327 83.0489 351.118 83.6019 357.417 85.9892L362.754 70.7418C365.408 68.4152 367.542 66.9012 370.3 65.6469C368.685 66.382 372.158 65.2862 371.423 65.3637C370.577 65.4514 369.737 65.6705 368.887 65.7548C367.876 65.8526 366.864 65.8998 365.853 65.92C365.347 65.92 364.841 65.9369 364.336 65.9403C363.412 65.9403 362.508 66.1392 364.025 65.9572C361.716 66.2337 359.123 65.8088 356.806 65.6671C354.581 65.5289 352.359 65.357 350.133 65.1816C336.939 64.1364 323.56 64.7871 310.346 64.8073L285.428 64.8444C277.673 64.8444 269.152 64.9119 262.112 64.8444C246.062 64.6455 230.022 64.0183 213.975 63.7991C195.43 63.5429 176.905 63.7384 158.468 65.8222C152.648 66.4966 146.93 72.0871 143.602 76.4401C142.229 78.2306 140.473 80.6078 140.145 82.904C139.936 84.391 139.903 87.1019 142.125 87.1727C174.609 88.2214 207.184 88.2382 239.712 89.6004C255.765 90.2748 271.816 91.0099 287.866 91.8056C302.944 92.5609 318.04 93.8288 333.126 94.2873C345.177 94.6481 358.708 93.8321 369.687 99.7024L368.304 98.9539C368.962 99.3248 369.599 99.7193 370.226 100.148L385.082 80.8472C384.772 80.9483 383.943 81.3327 383.686 81.2889C383.686 81.2889 385.42 80.8741 384.303 81.1034C383.45 81.2788 382.618 81.5047 381.751 81.6766C379.984 82.0138 378.197 82.2903 376.413 82.5229C372.666 82.9886 368.897 83.261 365.121 83.339C357.073 83.5582 351.243 83.2277 343.164 83.3828C325.718 83.72 308.282 84.4382 290.829 84.6438C273.033 84.8529 255.233 84.7147 237.436 84.8934C219.994 85.0687 202.562 85.6689 185.129 86.1174C165.761 86.6164 146.353 87.0311 127.103 86.5186L109.634 106.82C142.212 107.471 174.805 108.388 207.336 110.283C239.481 112.158 271.598 114.436 303.686 117.118C321.966 118.635 340.237 120.249 358.499 121.96C363.766 122.445 369.242 117.684 372.367 113.888C373.547 112.451 379.66 103.907 374.596 103.25C340.986 98.8932 307.028 100.057 273.229 99.5103C238.542 98.9506 203.715 97.5512 169.116 94.9819C163.202 94.5435 157.264 94.6953 151.347 94.3278C148.168 94.1717 145.006 93.7727 141.889 93.1341C140.462 92.8339 139.062 92.4154 137.704 91.8832C137.394 91.7584 136.332 91.2392 136.501 91.3404C136.956 91.6067 136.163 91.111 136.079 91.0402C135.799 90.8109 135.506 90.6052 135.229 90.3658L127.845 103.132C129.042 102.144 125.542 104.457 126.968 103.674C125.802 104.315 125.323 104.46 126.78 103.857C127.012 103.759 127.292 103.695 127.518 103.583C127.42 103.631 126.146 103.84 126.931 103.776C127.565 103.725 128.219 103.513 128.85 103.415C131.479 103.047 134.133 102.882 136.787 102.923C138.358 102.923 141.612 103.078 143.868 103.192C146.292 103.314 148.713 103.428 151.144 103.408C167.599 103.284 184.051 103.352 200.501 103.61C233.448 104.103 266.38 105.526 299.296 106.645C314.935 107.171 331.089 110.186 346.589 106.814C350.659 105.93 354.207 102.835 356.675 99.6114C357.602 98.3975 361.186 92.8307 357.686 92.3316C340.122 89.8331 322.255 90.3085 304.566 90.2815C286.696 90.2579 268.825 89.4184 250.954 88.771C214.178 87.4425 177.401 86.4849 140.618 85.4396C131.042 85.1665 121.499 84.7079 111.94 84.1448C102.381 83.5817 92.7206 83.2513 83.3301 85.1732C79.9178 85.8678 76.9 88.5451 74.8499 91.2426C73.8991 92.48 71.1612 96.5936 74.007 97.3658C91.5405 102.123 110.008 100.717 127.956 101.075C148.552 101.483 169.16 102.606 189.752 103.29C231.114 104.666 272.554 105.6 313.802 109.113C324.952 110.061 336.083 111.184 347.24 112.067C358.29 112.94 369.316 114.09 380.129 116.619L390.197 103.469C366.079 106.642 341.555 105.492 317.295 106.503C292.03 107.566 266.768 108.651 241.513 110.014C216.201 111.362 190.902 113.166 165.569 114.097C140.237 115.027 114.992 115.29 89.7029 115.473C61.2648 115.682 32.8167 115.712 4.39547 116.295C2.53759 116.332 -1.87274 121.565 0.882045 121.535L0.871919 121.599Z" fill="#FEB315"/>
</svg>
