<svg width="191" height="191" viewBox="0 0 191 191" fill="none" xmlns="http://www.w3.org/2000/svg">
<path d="M55.7083 135.292C66.6965 135.292 75.6042 126.384 75.6042 115.396C75.6042 104.408 66.6965 95.5 55.7083 95.5C44.7202 95.5 35.8125 104.408 35.8125 115.396C35.8125 126.384 44.7202 135.292 55.7083 135.292Z" stroke="#035271" stroke-width="6" stroke-linecap="round" stroke-linejoin="round"/>
<path d="M135.291 135.292C146.28 135.292 155.187 126.384 155.187 115.396C155.187 104.408 146.28 95.5 135.291 95.5C124.303 95.5 115.396 104.408 115.396 115.396C115.396 126.384 124.303 135.292 135.291 135.292Z" stroke="#035271" stroke-width="6" stroke-linecap="round" stroke-linejoin="round"/>
<path d="M95.5003 55.7083C106.488 55.7083 115.396 46.8006 115.396 35.8125C115.396 24.8243 106.488 15.9166 95.5003 15.9166C84.5122 15.9166 75.6045 24.8243 75.6045 35.8125C75.6045 46.8006 84.5122 55.7083 95.5003 55.7083Z" stroke="#035271" stroke-width="6" stroke-linecap="round" stroke-linejoin="round"/>
<path d="M95.5003 175.083C95.5003 153.107 77.6848 135.292 55.7087 135.292C33.7323 135.292 15.917 153.107 15.917 175.083" stroke="#035271" stroke-width="6" stroke-linecap="round" stroke-linejoin="round"/>
<path d="M175.083 175.083C175.083 153.107 157.268 135.292 135.292 135.292C113.316 135.292 95.5 153.107 95.5 175.083" stroke="#035271" stroke-width="6" stroke-linecap="round" stroke-linejoin="round"/>
<path d="M135.291 95.5C135.291 73.5239 117.476 55.7084 95.4997 55.7084C73.5235 55.7084 55.708 73.5239 55.708 95.5" stroke="#035271" stroke-width="6" stroke-linecap="round" stroke-linejoin="round"/>
</svg>
