<svg width="125" height="133" viewBox="0 0 125 133" fill="none" xmlns="http://www.w3.org/2000/svg">
<g filter="url(#filter0_dddd_664_1494)">
<path d="M68.238 93.9047C89.0488 93.9047 105.905 77.0489 105.905 56.238C105.905 35.4272 89.0488 18.5713 68.238 18.5713C47.4271 18.5713 30.5712 35.4272 30.5712 56.238C30.5712 77.0489 47.4271 93.9047 68.238 93.9047Z" stroke="#F26C1E" stroke-width="5" stroke-miterlimit="2" stroke-linejoin="round"/>
<path d="M68.238 75.0713C78.6434 75.0713 87.0713 66.6434 87.0713 56.238C87.0713 45.8326 78.6434 37.4047 68.238 37.4047C57.8326 37.4047 49.4046 45.8326 49.4046 56.238C49.4046 66.6434 57.8326 75.0713 68.238 75.0713Z" stroke="#F26C1E" stroke-width="5" stroke-miterlimit="2" stroke-linejoin="round"/>
<path d="M68.238 60.9463C70.8276 60.9463 72.9463 58.8276 72.9463 56.238C72.9463 53.6484 70.8276 51.5297 68.238 51.5297C65.6484 51.5297 63.5296 53.6484 63.5296 56.238C63.5296 58.8276 65.6484 60.9463 68.238 60.9463Z" fill="#F26C1E"/>
<path d="M68.238 18.5712V9.15454" stroke="#F26C1E" stroke-width="5" stroke-miterlimit="2" stroke-linecap="round" stroke-linejoin="round"/>
<path d="M101.196 103.321L91.7796 86.8422" stroke="#F26C1E" stroke-width="5" stroke-miterlimit="2" stroke-linecap="round" stroke-linejoin="round"/>
<path d="M44.6963 86.8422L35.2796 103.321" stroke="#F26C1E" stroke-width="5" stroke-miterlimit="2" stroke-linecap="round" stroke-linejoin="round"/>
</g>
<defs>
<filter id="filter0_dddd_664_1494" x="-16" y="-2" width="143" height="142" filterUnits="userSpaceOnUse" color-interpolation-filters="sRGB">
<feFlood flood-opacity="0" result="BackgroundImageFix"/>
<feColorMatrix in="SourceAlpha" type="matrix" values="0 0 0 0 0 0 0 0 0 0 0 0 0 0 0 0 0 0 127 0" result="hardAlpha"/>
<feOffset dx="-1" dy="1"/>
<feGaussianBlur stdDeviation="1.5"/>
<feColorMatrix type="matrix" values="0 0 0 0 0 0 0 0 0 0 0 0 0 0 0 0 0 0 0.26 0"/>
<feBlend mode="normal" in2="BackgroundImageFix" result="effect1_dropShadow_664_1494"/>
<feColorMatrix in="SourceAlpha" type="matrix" values="0 0 0 0 0 0 0 0 0 0 0 0 0 0 0 0 0 0 127 0" result="hardAlpha"/>
<feOffset dx="-4" dy="4"/>
<feGaussianBlur stdDeviation="3"/>
<feColorMatrix type="matrix" values="0 0 0 0 0 0 0 0 0 0 0 0 0 0 0 0 0 0 0.22 0"/>
<feBlend mode="normal" in2="effect1_dropShadow_664_1494" result="effect2_dropShadow_664_1494"/>
<feColorMatrix in="SourceAlpha" type="matrix" values="0 0 0 0 0 0 0 0 0 0 0 0 0 0 0 0 0 0 127 0" result="hardAlpha"/>
<feOffset dx="-10" dy="10"/>
<feGaussianBlur stdDeviation="4"/>
<feColorMatrix type="matrix" values="0 0 0 0 0 0 0 0 0 0 0 0 0 0 0 0 0 0 0.13 0"/>
<feBlend mode="normal" in2="effect2_dropShadow_664_1494" result="effect3_dropShadow_664_1494"/>
<feColorMatrix in="SourceAlpha" type="matrix" values="0 0 0 0 0 0 0 0 0 0 0 0 0 0 0 0 0 0 127 0" result="hardAlpha"/>
<feOffset dx="-18" dy="17"/>
<feGaussianBlur stdDeviation="5"/>
<feColorMatrix type="matrix" values="0 0 0 0 0 0 0 0 0 0 0 0 0 0 0 0 0 0 0.04 0"/>
<feBlend mode="normal" in2="effect3_dropShadow_664_1494" result="effect4_dropShadow_664_1494"/>
<feBlend mode="normal" in="SourceGraphic" in2="effect4_dropShadow_664_1494" result="shape"/>
</filter>
</defs>
</svg>
