<svg width="45" height="45" viewBox="0 0 45 45" fill="none" xmlns="http://www.w3.org/2000/svg">
<path d="M18.75 30.9375L24.375 32.8125C24.375 32.8125 38.4375 30 40.3125 30C42.1875 30 42.1875 31.875 40.3125 33.75C38.4375 35.625 31.875 41.25 26.25 41.25C20.625 41.25 16.875 38.4375 13.125 38.4375C9.375 38.4375 3.75 38.4375 3.75 38.4375" stroke="#035271" stroke-width="2" stroke-linecap="round" stroke-linejoin="round"/>
<path d="M3.75 27.1875C5.625 25.3125 9.375 22.5 13.125 22.5C16.875 22.5 25.7812 26.25 27.1875 28.125C28.5938 30 24.375 32.8125 24.375 32.8125" stroke="#035271" stroke-width="2" stroke-linecap="round" stroke-linejoin="round"/>
<path d="M31.875 23.4375C33.4283 23.4375 34.6875 22.1783 34.6875 20.625C34.6875 19.0717 33.4283 17.8125 31.875 17.8125C30.3217 17.8125 29.0625 19.0717 29.0625 20.625C29.0625 22.1783 30.3217 23.4375 31.875 23.4375Z" stroke="#035271" stroke-width="2"/>
<path d="M20.625 16.875C22.1783 16.875 23.4375 15.6158 23.4375 14.0625C23.4375 12.5092 22.1783 11.25 20.625 11.25C19.0717 11.25 17.8125 12.5092 17.8125 14.0625C17.8125 15.6158 19.0717 16.875 20.625 16.875Z" stroke="#035271" stroke-width="2"/>
<path d="M31.875 9.375C33.4283 9.375 34.6875 8.1158 34.6875 6.5625C34.6875 5.0092 33.4283 3.75 31.875 3.75C30.3217 3.75 29.0625 5.0092 29.0625 6.5625C29.0625 8.1158 30.3217 9.375 31.875 9.375Z" stroke="#035271" stroke-width="2"/>
</svg>
