<svg width="89" height="89" viewBox="0 0 89 89" fill="none" xmlns="http://www.w3.org/2000/svg">
<path fill-rule="evenodd" clip-rule="evenodd" d="M17.6143 24.5679C18.3823 24.5679 19.0049 25.1905 19.0049 25.9585V48.2085C19.0049 48.9765 18.3823 49.5991 17.6143 49.5991C16.8462 49.5991 16.2236 48.9765 16.2236 48.2085V25.9585C16.2236 25.1905 16.8462 24.5679 17.6143 24.5679Z" fill="#BC90E3"/>
<path fill-rule="evenodd" clip-rule="evenodd" d="M30.5938 24.5679C31.3618 24.5679 31.9844 25.1905 31.9844 25.9585V48.2085C31.9844 48.9765 31.3618 49.5991 30.5938 49.5991C29.8257 49.5991 29.2031 48.9765 29.2031 48.2085V25.9585C29.2031 25.1905 29.8257 24.5679 30.5938 24.5679Z" fill="#BC90E3"/>
<path fill-rule="evenodd" clip-rule="evenodd" d="M11.125 30.1304C11.893 30.1304 12.5156 30.753 12.5156 31.521V42.646C12.5156 43.414 11.893 44.0366 11.125 44.0366C10.357 44.0366 9.73438 43.414 9.73438 42.646V31.521C9.73438 30.753 10.357 30.1304 11.125 30.1304Z" fill="#C8A7E6"/>
<path fill-rule="evenodd" clip-rule="evenodd" d="M24.1045 30.1304C24.8725 30.1304 25.4951 30.753 25.4951 31.521V42.646C25.4951 43.414 24.8725 44.0366 24.1045 44.0366C23.3365 44.0366 22.7139 43.414 22.7139 42.646V31.521C22.7139 30.753 23.3365 30.1304 24.1045 30.1304Z" fill="#C8A7E6"/>
<path fill-rule="evenodd" clip-rule="evenodd" d="M37.083 30.1304C37.851 30.1304 38.4736 30.753 38.4736 31.521V42.646C38.4736 43.414 37.851 44.0366 37.083 44.0366C36.315 44.0366 35.6924 43.414 35.6924 42.646V31.521C35.6924 30.753 36.315 30.1304 37.083 30.1304Z" fill="#C8A7E6"/>
<path d="M81.5833 71.8216C81.5833 70.5567 73.2819 69.5312 63.0417 69.5312C52.8014 69.5312 44.5 70.5567 44.5 71.8216V75.5846C44.5 76.8496 52.8014 77.875 63.0417 77.875C73.2819 77.875 81.5833 76.8496 81.5833 75.5846V71.8216Z" fill="#474343"/>
<path fill-rule="evenodd" clip-rule="evenodd" d="M82.1645 69.7728C82.481 69.9639 83.4372 70.5982 83.4372 71.8218V75.5848C83.4372 76.8084 82.481 77.4427 82.1645 77.6337C81.7148 77.9052 81.1719 78.1024 80.6457 78.2561C79.5653 78.5716 78.0926 78.8329 76.3796 79.0445C72.9278 79.4709 68.2128 79.7293 63.0413 79.7293C57.8699 79.7293 53.1549 79.4709 49.7031 79.0445C47.9901 78.8329 46.5174 78.5716 45.437 78.2561C44.9108 78.1024 44.3679 77.9052 43.9181 77.6337C43.6016 77.4427 42.6455 76.8084 42.6455 75.5848V71.8218C42.6455 70.5982 43.6016 69.9639 43.9181 69.7728C44.3679 69.5013 44.9108 69.3041 45.437 69.1505C46.5174 68.8349 47.9901 68.5737 49.7031 68.3621C53.1549 67.9357 57.8699 67.6772 63.0413 67.6772C68.2128 67.6772 72.9278 67.9357 76.3796 68.3621C78.0926 68.5737 79.5653 68.8349 80.6457 69.1505C81.1719 69.3041 81.7148 69.5013 82.1645 69.7728ZM63.0413 69.5314C73.2816 69.5314 81.583 70.5569 81.583 71.8218V75.5848C81.583 76.8497 73.2816 77.8752 63.0413 77.8752C52.8011 77.8752 44.4997 76.8497 44.4997 75.5848V71.8218C44.4997 70.5569 52.8011 69.5314 63.0413 69.5314Z" fill="black"/>
<path d="M81.5827 75.5849V72.749C80.1936 73.8767 75.8629 74.544 71.3848 74.8683V77.6309C77.4341 77.2537 81.5827 76.4791 81.5827 75.5849Z" fill="#2A2828"/>
<path d="M81.5833 71.849C81.5833 73.129 73.2819 74.1667 63.0417 74.1667C52.8014 74.1667 44.5 73.129 44.5 71.849C44.5 70.5689 52.8014 69.5312 63.0417 69.5312C73.2819 69.5312 81.5833 70.5689 81.5833 71.849Z" fill="#525252"/>
<path fill-rule="evenodd" clip-rule="evenodd" d="M80.0433 72.7753C79.9934 72.7896 79.9425 72.8038 79.8905 72.8179C76.9556 73.6141 70.5148 74.1668 63.0413 74.1668C55.5679 74.1668 49.1271 73.6141 46.1922 72.8179C46.1402 72.8038 46.0892 72.7896 46.0394 72.7753C45.049 72.4917 44.4997 72.1784 44.4997 71.8491C44.4997 71.5198 45.049 71.2066 46.0394 70.9229C46.0892 70.9087 46.1402 70.8945 46.1922 70.8803C49.1271 70.0841 55.5679 69.5314 63.0413 69.5314C70.5148 69.5314 76.9556 70.0841 79.8905 70.8803C79.9425 70.8945 79.9934 70.9086 80.0433 70.9229C81.0337 71.2066 81.583 71.5198 81.583 71.8491C81.583 72.1784 81.0337 72.4917 80.0433 72.7753ZM80.2397 70.7339C80.2373 70.7354 80.2343 70.7371 80.2309 70.7391C80.2716 70.7087 80.2827 70.7077 80.2397 70.7339ZM45.8429 70.7339C45.8 70.7077 45.8111 70.7087 45.8518 70.7391C45.8484 70.7372 45.8454 70.7354 45.8429 70.7339ZM45.8429 72.9643C45.8454 72.9628 45.8484 72.9611 45.8518 72.9592C45.8111 72.9896 45.8 72.9905 45.8429 72.9643ZM80.2397 72.9643C80.2827 72.9905 80.2716 72.9896 80.2309 72.9592C80.2343 72.9611 80.2373 72.9628 80.2397 72.9643ZM76.3823 75.3278C72.9293 75.7595 68.2134 76.021 63.0413 76.021C57.8692 76.021 53.1534 75.7595 49.7004 75.3278C47.987 75.1137 46.513 74.8491 45.4313 74.5294C44.9043 74.3737 44.3603 74.1737 43.9098 73.8985C43.5862 73.7009 42.6455 73.064 42.6455 71.8491C42.6455 70.6343 43.5862 69.9974 43.9098 69.7997C44.3603 69.5245 44.9043 69.3246 45.4313 69.1688C46.513 68.8491 47.987 68.5846 49.7004 68.3704C53.1534 67.9388 57.8692 67.6772 63.0413 67.6772C68.2134 67.6772 72.9293 67.9388 76.3823 68.3704C78.0957 68.5846 79.5697 68.8491 80.6514 69.1688C81.1784 69.3246 81.7224 69.5245 82.1729 69.7997C82.4964 69.9974 83.4372 70.6343 83.4372 71.8491C83.4372 73.064 82.4964 73.7009 82.1729 73.8985C81.7224 74.1737 81.1784 74.3737 80.6514 74.5294C79.5697 74.8491 78.0957 75.1137 76.3823 75.3278Z" fill="black"/>
<path fill-rule="evenodd" clip-rule="evenodd" d="M47.7532 75.9299C47.8034 75.6788 48.0476 75.516 48.2987 75.5662C49.4245 75.7914 51.8285 76.0216 54.1526 76.1959C56.4718 76.3698 58.6572 76.4843 59.3328 76.4843C59.5888 76.4843 59.7963 76.6918 59.7963 76.9478C59.7963 77.2039 59.5888 77.4114 59.3328 77.4114C58.6177 77.4114 56.3995 77.2941 54.0833 77.1204C51.7719 76.947 49.3087 76.7137 48.1169 76.4753C47.8658 76.4251 47.703 76.1809 47.7532 75.9299Z" fill="#6A6565"/>
<path fill-rule="evenodd" clip-rule="evenodd" d="M47.2806 25.0312C47.7926 25.0312 48.2077 25.4463 48.2077 25.9583V53.7708C48.2077 57.3549 51.1132 60.2604 54.6973 60.2604H71.3848C74.9689 60.2604 77.8743 57.3549 77.8743 53.7708V25.9583C77.8743 25.4463 78.2894 25.0312 78.8014 25.0312C79.3134 25.0312 79.7285 25.4463 79.7285 25.9583V53.7708C79.7285 58.379 75.9929 62.1146 71.3848 62.1146H54.6973C50.0891 62.1146 46.3535 58.379 46.3535 53.7708V25.9583C46.3535 25.4463 46.7686 25.0312 47.2806 25.0312Z" fill="black"/>
<path d="M61.1875 58.4062H64.8958L67.6771 71.3854H58.4062L61.1875 58.4062Z" fill="#3E3B3B"/>
<path fill-rule="evenodd" clip-rule="evenodd" d="M59.3742 58.0179C59.5574 57.163 60.3129 56.5522 61.1872 56.5522H64.8955C65.7698 56.5522 66.5253 57.163 66.7085 58.0179L69.4898 70.9971C69.6071 71.5446 69.4707 72.1158 69.1187 72.5513C68.7667 72.9867 68.2367 73.2397 67.6768 73.2397H58.4059C57.846 73.2397 57.316 72.9867 56.964 72.5513C56.612 72.1158 56.4756 71.5446 56.5929 70.9971L59.3742 58.0179ZM61.1872 58.4064H64.8955L67.6768 71.3856H58.4059L61.1872 58.4064Z" fill="black"/>
<path d="M61.1875 58.4062H62.1146L61.1875 71.3854H58.4062L61.1875 58.4062Z" fill="#575454"/>
<path d="M63.9688 58.4062H64.8958L67.6771 71.3854H64.8958L63.9688 58.4062Z" fill="#212020"/>
<path d="M50.9893 14.8333C50.9893 12.7853 52.6495 11.125 54.6976 11.125H71.3851C73.4331 11.125 75.0934 12.7853 75.0934 14.8333V50.0625C75.0934 52.1106 73.4331 53.7708 71.3851 53.7708H54.6976C52.6495 53.7708 50.9893 52.1106 50.9893 50.0625V14.8333Z" fill="#525252"/>
<path fill-rule="evenodd" clip-rule="evenodd" d="M54.6973 9.271H71.3848C74.4568 9.271 76.9473 11.7614 76.9473 14.8335V50.0627C76.9473 53.1348 74.4568 55.6252 71.3848 55.6252H54.6973C51.6252 55.6252 49.1348 53.1348 49.1348 50.0627V14.8335C49.1348 11.7614 51.6252 9.271 54.6973 9.271ZM54.6973 11.1252C52.6492 11.1252 50.9889 12.7854 50.9889 14.8335V50.0627C50.9889 52.1107 52.6492 53.771 54.6973 53.771H71.3848C73.4328 53.771 75.0931 52.1107 75.0931 50.0627V14.8335C75.0931 12.7854 73.4328 11.1252 71.3848 11.1252H54.6973Z" fill="black"/>
<path fill-rule="evenodd" clip-rule="evenodd" d="M73.2396 13.9062C73.7516 13.9062 74.1667 14.3213 74.1667 14.8333V40.7917H72.3125V14.8333C72.3125 14.3213 72.7276 13.9062 73.2396 13.9062Z" fill="#757575"/>
<path fill-rule="evenodd" clip-rule="evenodd" d="M52.8431 13.9062C53.3551 13.9062 53.7702 14.3213 53.7702 14.8333V40.7917H51.916V14.8333C51.916 14.3213 52.3311 13.9062 52.8431 13.9062Z" fill="#9D9D9D"/>
<path d="M50.9893 40.792H75.0934V50.0628C75.0934 52.1109 73.4331 53.7712 71.3851 53.7712H54.6976C52.6495 53.7712 50.9893 52.1109 50.9893 50.0628V40.792Z" fill="#312E2E"/>
<path fill-rule="evenodd" clip-rule="evenodd" d="M51.916 50.0628V40.792H53.7702V50.0628C53.7702 50.5748 53.3551 50.9899 52.8431 50.9899C52.3311 50.9899 51.916 50.5748 51.916 50.0628Z" fill="#535353"/>
<path fill-rule="evenodd" clip-rule="evenodd" d="M72.3125 50.0628V40.792H74.1667V50.0628C74.1667 50.5748 73.7516 50.9899 73.2396 50.9899C72.7276 50.9899 72.3125 50.5748 72.3125 50.0628Z" fill="#535353"/>
<path d="M73.2389 13.9059C73.2389 13.3939 72.8239 12.9788 72.3118 12.9788C71.7998 12.9788 71.3848 13.3939 71.3848 13.9059C71.3848 14.4179 71.7998 14.833 72.3118 14.833C72.8239 14.833 73.2389 14.4179 73.2389 13.9059Z" fill="#353535"/>
<path d="M73.2389 17.6144C73.2389 17.1024 72.8239 16.6873 72.3118 16.6873C71.7998 16.6873 71.3848 17.1024 71.3848 17.6144C71.3848 18.1264 71.7998 18.5415 72.3118 18.5415C72.8239 18.5415 73.2389 18.1264 73.2389 17.6144Z" fill="#353535"/>
<path d="M69.5309 17.6144C69.5309 17.1024 69.1159 16.6873 68.6038 16.6873C68.0918 16.6873 67.6768 17.1024 67.6768 17.6144C67.6768 18.1264 68.0918 18.5415 68.6038 18.5415C69.1159 18.5415 69.5309 18.1264 69.5309 17.6144Z" fill="#353535"/>
<path d="M71.3844 15.7604C71.3844 15.2484 70.9694 14.8333 70.4574 14.8333C69.9453 14.8333 69.5303 15.2484 69.5303 15.7604C69.5303 16.2724 69.9453 16.6875 70.4574 16.6875C70.9694 16.6875 71.3844 16.2724 71.3844 15.7604Z" fill="#353535"/>
<path d="M67.6764 15.7604C67.6764 15.2484 67.2614 14.8333 66.7493 14.8333C66.2373 14.8333 65.8223 15.2484 65.8223 15.7604C65.8223 16.2724 66.2373 16.6875 66.7493 16.6875C67.2614 16.6875 67.6764 16.2724 67.6764 15.7604Z" fill="#353535"/>
<path d="M69.5309 13.9059C69.5309 13.3939 69.1159 12.9788 68.6038 12.9788C68.0918 12.9788 67.6768 13.3939 67.6768 13.9059C67.6768 14.4179 68.0918 14.833 68.6038 14.833C69.1159 14.833 69.5309 14.4179 69.5309 13.9059Z" fill="#353535"/>
<path d="M71.3844 19.4689C71.3844 18.9569 70.9694 18.5418 70.4574 18.5418C69.9453 18.5418 69.5303 18.9569 69.5303 19.4689C69.5303 19.9809 69.9453 20.396 70.4574 20.396C70.9694 20.396 71.3844 19.9809 71.3844 19.4689Z" fill="#353535"/>
<path d="M71.3844 23.1774C71.3844 22.6654 70.9694 22.2503 70.4574 22.2503C69.9453 22.2503 69.5303 22.6654 69.5303 23.1774C69.5303 23.6894 69.9453 24.1045 70.4574 24.1045C70.9694 24.1045 71.3844 23.6894 71.3844 23.1774Z" fill="#353535"/>
<path d="M67.6764 23.1774C67.6764 22.6654 67.2614 22.2503 66.7493 22.2503C66.2373 22.2503 65.8223 22.6654 65.8223 23.1774C65.8223 23.6894 66.2373 24.1045 66.7493 24.1045C67.2614 24.1045 67.6764 23.6894 67.6764 23.1774Z" fill="#353535"/>
<path d="M69.5299 21.3229C69.5299 20.8109 69.1149 20.3958 68.6029 20.3958C68.0909 20.3958 67.6758 20.8109 67.6758 21.3229C67.6758 21.8349 68.0909 22.25 68.6029 22.25C69.1149 22.25 69.5299 21.8349 69.5299 21.3229Z" fill="#353535"/>
<path d="M73.2389 21.3229C73.2389 20.8109 72.8239 20.3958 72.3118 20.3958C71.7998 20.3958 71.3848 20.8109 71.3848 21.3229C71.3848 21.8349 71.7998 22.25 72.3118 22.25C72.8239 22.25 73.2389 21.8349 73.2389 21.3229Z" fill="#353535"/>
<path d="M73.2389 25.0314C73.2389 24.5194 72.8239 24.1043 72.3118 24.1043C71.7998 24.1043 71.3848 24.5194 71.3848 25.0314C71.3848 25.5434 71.7998 25.9585 72.3118 25.9585C72.8239 25.9585 73.2389 25.5434 73.2389 25.0314Z" fill="#353535"/>
<path d="M69.5299 25.0314C69.5299 24.5194 69.1149 24.1043 68.6029 24.1043C68.0909 24.1043 67.6758 24.5194 67.6758 25.0314C67.6758 25.5434 68.0909 25.9585 68.6029 25.9585C69.1149 25.9585 69.5299 25.5434 69.5299 25.0314Z" fill="#353535"/>
<path d="M65.8219 21.3229C65.8219 20.8109 65.4069 20.3958 64.8949 20.3958C64.3828 20.3958 63.9678 20.8109 63.9678 21.3229C63.9678 21.8349 64.3828 22.25 64.8949 22.25C65.4069 22.25 65.8219 21.8349 65.8219 21.3229Z" fill="#353535"/>
<path d="M67.6764 19.4689C67.6764 18.9569 67.2614 18.5418 66.7493 18.5418C66.2373 18.5418 65.8223 18.9569 65.8223 19.4689C65.8223 19.9809 66.2373 20.396 66.7493 20.396C67.2614 20.396 67.6764 19.9809 67.6764 19.4689Z" fill="#353535"/>
<path d="M65.8219 13.9059C65.8219 13.3939 65.4069 12.9788 64.8949 12.9788C64.3828 12.9788 63.9678 13.3939 63.9678 13.9059C63.9678 14.4179 64.3828 14.833 64.8949 14.833C65.4069 14.833 65.8219 14.4179 65.8219 13.9059Z" fill="#353535"/>
<path d="M65.8219 17.6144C65.8219 17.1024 65.4069 16.6873 64.8949 16.6873C64.3828 16.6873 63.9678 17.1024 63.9678 17.6144C63.9678 18.1264 64.3828 18.5415 64.8949 18.5415C65.4069 18.5415 65.8219 18.1264 65.8219 17.6144Z" fill="#353535"/>
<path d="M62.1139 17.6144C62.1139 17.1024 61.6989 16.6873 61.1868 16.6873C60.6748 16.6873 60.2598 17.1024 60.2598 17.6144C60.2598 18.1264 60.6748 18.5415 61.1868 18.5415C61.6989 18.5415 62.1139 18.1264 62.1139 17.6144Z" fill="#353535"/>
<path d="M63.9674 15.7604C63.9674 15.2484 63.5524 14.8333 63.0404 14.8333C62.5284 14.8333 62.1133 15.2484 62.1133 15.7604C62.1133 16.2724 62.5284 16.6875 63.0404 16.6875C63.5524 16.6875 63.9674 16.2724 63.9674 15.7604Z" fill="#353535"/>
<path d="M60.2594 15.7604C60.2594 15.2484 59.8444 14.8333 59.3324 14.8333C58.8203 14.8333 58.4053 15.2484 58.4053 15.7604C58.4053 16.2724 58.8203 16.6875 59.3324 16.6875C59.8444 16.6875 60.2594 16.2724 60.2594 15.7604Z" fill="#353535"/>
<path d="M62.1139 13.9059C62.1139 13.3939 61.6989 12.9788 61.1868 12.9788C60.6748 12.9788 60.2598 13.3939 60.2598 13.9059C60.2598 14.4179 60.6748 14.833 61.1868 14.833C61.6989 14.833 62.1139 14.4179 62.1139 13.9059Z" fill="#353535"/>
<path d="M63.9684 19.4689C63.9684 18.9569 63.5534 18.5418 63.0413 18.5418C62.5293 18.5418 62.1143 18.9569 62.1143 19.4689C62.1143 19.9809 62.5293 20.396 63.0413 20.396C63.5534 20.396 63.9684 19.9809 63.9684 19.4689Z" fill="#353535"/>
<path d="M63.9684 23.1769C63.9684 22.6649 63.5534 22.2498 63.0413 22.2498C62.5293 22.2498 62.1143 22.6649 62.1143 23.1769C62.1143 23.6889 62.5293 24.104 63.0413 24.104C63.5534 24.104 63.9684 23.6889 63.9684 23.1769Z" fill="#353535"/>
<path d="M60.2594 23.1769C60.2594 22.6649 59.8444 22.2498 59.3324 22.2498C58.8203 22.2498 58.4053 22.6649 58.4053 23.1769C58.4053 23.6889 58.8203 24.104 59.3324 24.104C59.8444 24.104 60.2594 23.6889 60.2594 23.1769Z" fill="#353535"/>
<path d="M62.1139 21.3229C62.1139 20.8109 61.6989 20.3958 61.1868 20.3958C60.6748 20.3958 60.2598 20.8109 60.2598 21.3229C60.2598 21.8349 60.6748 22.25 61.1868 22.25C61.6989 22.25 62.1139 21.8349 62.1139 21.3229Z" fill="#353535"/>
<path d="M58.4059 13.9064C58.4059 13.3944 57.9909 12.9793 57.4788 12.9793C56.9668 12.9793 56.5518 13.3944 56.5518 13.9064C56.5518 14.4184 56.9668 14.8335 57.4788 14.8335C57.9909 14.8335 58.4059 14.4184 58.4059 13.9064Z" fill="#353535"/>
<path d="M56.5514 15.7604C56.5514 15.2484 56.1364 14.8333 55.6243 14.8333C55.1123 14.8333 54.6973 15.2484 54.6973 15.7604C54.6973 16.2724 55.1123 16.6875 55.6243 16.6875C56.1364 16.6875 56.5514 16.2724 56.5514 15.7604Z" fill="#353535"/>
<path d="M58.4059 17.6144C58.4059 17.1024 57.9909 16.6873 57.4788 16.6873C56.9668 16.6873 56.5518 17.1024 56.5518 17.6144C56.5518 18.1264 56.9668 18.5415 57.4788 18.5415C57.9909 18.5415 58.4059 18.1264 58.4059 17.6144Z" fill="#353535"/>
<path d="M65.8219 25.0314C65.8219 24.5194 65.4069 24.1043 64.8949 24.1043C64.3828 24.1043 63.9678 24.5194 63.9678 25.0314C63.9678 25.5434 64.3828 25.9585 64.8949 25.9585C65.4069 25.9585 65.8219 25.5434 65.8219 25.0314Z" fill="#353535"/>
<path d="M67.6764 26.8854C67.6764 26.3734 67.2614 25.9583 66.7493 25.9583C66.2373 25.9583 65.8223 26.3734 65.8223 26.8854C65.8223 27.3974 66.2373 27.8125 66.7493 27.8125C67.2614 27.8125 67.6764 27.3974 67.6764 26.8854Z" fill="#353535"/>
<path d="M71.3844 26.8854C71.3844 26.3734 70.9694 25.9583 70.4574 25.9583C69.9453 25.9583 69.5303 26.3734 69.5303 26.8854C69.5303 27.3974 69.9453 27.8125 70.4574 27.8125C70.9694 27.8125 71.3844 27.3974 71.3844 26.8854Z" fill="#353535"/>
<path d="M73.2389 28.7394C73.2389 28.2274 72.8239 27.8123 72.3118 27.8123C71.7998 27.8123 71.3848 28.2274 71.3848 28.7394C71.3848 29.2514 71.7998 29.6665 72.3118 29.6665C72.8239 29.6665 73.2389 29.2514 73.2389 28.7394Z" fill="#353535"/>
<path d="M69.5309 28.7394C69.5309 28.2274 69.1159 27.8123 68.6038 27.8123C68.0918 27.8123 67.6768 28.2274 67.6768 28.7394C67.6768 29.2514 68.0918 29.6665 68.6038 29.6665C69.1159 29.6665 69.5309 29.2514 69.5309 28.7394Z" fill="#353535"/>
<path d="M65.8219 28.7394C65.8219 28.2274 65.4069 27.8123 64.8949 27.8123C64.3828 27.8123 63.9678 28.2274 63.9678 28.7394C63.9678 29.2514 64.3828 29.6665 64.8949 29.6665C65.4069 29.6665 65.8219 29.2514 65.8219 28.7394Z" fill="#353535"/>
<path d="M71.3844 30.5939C71.3844 30.0819 70.9694 29.6668 70.4574 29.6668C69.9453 29.6668 69.5303 30.0819 69.5303 30.5939C69.5303 31.1059 69.9453 31.521 70.4574 31.521C70.9694 31.521 71.3844 31.1059 71.3844 30.5939Z" fill="#353535"/>
<path d="M73.2389 32.4479C73.2389 31.9359 72.8239 31.5208 72.3118 31.5208C71.7998 31.5208 71.3848 31.9359 71.3848 32.4479C71.3848 32.9599 71.7998 33.375 72.3118 33.375C72.8239 33.375 73.2389 32.9599 73.2389 32.4479Z" fill="#353535"/>
<path d="M58.4059 21.3229C58.4059 20.8109 57.9909 20.3958 57.4788 20.3958C56.9668 20.3958 56.5518 20.8109 56.5518 21.3229C56.5518 21.8349 56.9668 22.25 57.4788 22.25C57.9909 22.25 58.4059 21.8349 58.4059 21.3229Z" fill="#353535"/>
<path d="M60.2594 19.4689C60.2594 18.9569 59.8444 18.5418 59.3324 18.5418C58.8203 18.5418 58.4053 18.9569 58.4053 19.4689C58.4053 19.9809 58.8203 20.396 59.3324 20.396C59.8444 20.396 60.2594 19.9809 60.2594 19.4689Z" fill="#353535"/>
<path d="M65.8223 47.2812C65.8223 48.8173 64.5771 50.0625 63.041 50.0625C61.505 50.0625 60.2598 48.8173 60.2598 47.2812C60.2598 45.7452 61.505 44.5 63.041 44.5C64.5771 44.5 65.8223 45.7452 65.8223 47.2812Z" fill="#28AF3E"/>
<path fill-rule="evenodd" clip-rule="evenodd" d="M67.6771 47.2814C67.6771 49.8415 65.6017 51.9168 63.0417 51.9168C60.4816 51.9168 58.4062 49.8415 58.4062 47.2814C58.4062 44.7213 60.4816 42.646 63.0417 42.646C65.6017 42.646 67.6771 44.7213 67.6771 47.2814ZM63.0417 50.0627C64.5777 50.0627 65.8229 48.8175 65.8229 47.2814C65.8229 45.7454 64.5777 44.5002 63.0417 44.5002C61.5056 44.5002 60.2604 45.7454 60.2604 47.2814C60.2604 48.8175 61.5056 50.0627 63.0417 50.0627Z" fill="#191919"/>
<path d="M63.0417 46.3543C63.0417 46.8663 62.6266 47.2814 62.1146 47.2814C61.6026 47.2814 61.1875 46.8663 61.1875 46.3543C61.1875 45.8423 61.6026 45.4272 62.1146 45.4272C62.6266 45.4272 63.0417 45.8423 63.0417 46.3543Z" fill="#B8FFAD"/>
<path d="M47.2812 30.1304C47.2812 29.3624 47.9039 28.7397 48.6719 28.7397C49.4399 28.7397 50.0625 29.3624 50.0625 30.1304V34.7658C50.0625 35.5338 49.4399 36.1564 48.6719 36.1564C47.9039 36.1564 47.2812 35.5338 47.2812 34.7658V30.1304Z" fill="black"/>
<path d="M76.0205 30.1304C76.0205 29.3624 76.6431 28.7397 77.4111 28.7397C78.1792 28.7397 78.8018 29.3624 78.8018 30.1304V34.7658C78.8018 35.5338 78.1792 36.1564 77.4111 36.1564C76.6431 36.1564 76.0205 35.5338 76.0205 34.7658V30.1304Z" fill="black"/>
</svg>
