<svg width="158" height="13" viewBox="0 0 158 13" fill="none" xmlns="http://www.w3.org/2000/svg">
<path d="M9.51394 0.525309C9.87603 0.311165 10.1498 0.146965 9.69359 0.0741558C8.95516 -0.0457649 8.154 -0.0414877 7.56097 0.246894C6.96508 0.536702 6.30364 0.659488 5.51103 0.613804C4.40765 0.549561 3.37267 0.66519 2.34341 0.855064C0.39325 1.21483 0.210757 1.31763 0.324801 2.40263C0.387526 2.99937 0.324843 3.58469 0.225054 4.18002C-0.0343973 5.74327 -0.174138 7.31082 0.401787 8.86836C0.507278 9.15246 0.875086 9.34948 1.41395 9.44941C1.71616 9.50509 2.0355 9.54361 2.35483 9.56645C3.21016 9.62499 4.06835 9.68781 4.92654 9.71493C7.5125 9.79773 10.1013 9.87483 12.6901 9.92908C13.4371 9.94478 14.1926 9.87057 14.9453 9.84487C16.465 9.79347 17.9675 9.78917 19.3817 10.1475C20.2712 10.3731 21.2406 10.423 22.2185 10.4259C23.4074 10.4302 24.5963 10.433 25.7824 10.4102C28.2714 10.3631 30.7434 10.4073 33.2039 10.6243C35.7727 10.8499 38.3758 10.7742 40.9646 10.7785C47.8757 10.7914 54.7868 10.7814 61.695 10.7842C62.4506 10.7842 63.2119 10.7828 63.9617 10.8242C67.9447 11.0398 71.9449 10.9798 75.9364 11.0697C77.7668 11.1112 79.5972 11.194 81.422 11.2896C83.355 11.391 85.2852 11.4652 87.2354 11.4595C90.5826 11.4509 93.9326 11.578 97.2741 11.5166C100.966 11.4481 104.596 11.7479 108.262 11.8036C109.123 11.8164 109.987 11.8121 110.848 11.815C112.359 11.8178 113.868 11.8078 115.367 11.9592C116.103 12.0334 116.867 12.0505 117.623 12.0619C121.617 12.1148 125.611 12.1733 129.609 12.0705C131.334 12.0263 133.064 12.0448 134.792 12.0191C135.545 12.0077 136.306 11.982 137.047 11.922C137.817 11.8592 138.555 11.8664 139.277 12.0106C140.933 12.3418 142.613 12.3903 144.363 12.2219C146.222 12.0434 148.007 12.3032 149.763 12.5788C150.068 12.6273 150.348 12.7201 150.644 12.7829C152.848 13.2483 154.527 12.9599 155.927 11.9706C157.005 11.2082 157.852 10.4202 158 9.41086C157.193 8.73988 156.321 8.01605 155.437 7.28082C156.478 6.96246 157.073 6.56558 156.845 5.92886C156.777 5.73613 157.065 5.51772 157.093 5.30643C157.119 5.09657 157.048 4.88097 156.977 4.67111C156.9 4.43984 156.6 4.2514 156.155 4.22285C154.559 4.12006 152.996 3.96301 151.34 4.02868C148.01 4.16145 144.662 4.23142 141.324 4.22857C136.791 4.22571 132.254 4.26853 127.73 4.04297C126.013 3.95731 124.28 3.97586 122.555 3.92875C118.352 3.81597 114.15 3.70176 109.947 3.56899C107.039 3.47619 104.134 3.34916 101.226 3.24209C100.365 3.21068 99.498 3.16783 98.637 3.18211C96.5756 3.21922 94.5399 3.10929 92.4985 2.99508C91.2155 2.9237 89.9154 2.91229 88.621 2.90801C86.4599 2.89945 84.3015 2.93229 82.1404 2.91944C81.1739 2.91373 80.2016 2.85946 79.2437 2.78522C78.1631 2.70099 77.1139 2.67671 76.0362 2.8152C74.7731 2.97794 73.4701 2.98367 72.17 2.94227C69.3702 2.85233 66.5705 2.8252 63.7707 2.65389C61.2104 2.49685 58.5959 2.55252 56.0042 2.53681C53.7347 2.52254 51.4738 2.49542 49.2186 2.33267C48.0468 2.24844 46.8493 2.267 45.6632 2.2256C44.3717 2.17992 43.0802 2.11997 41.7915 2.06144C40.5854 2.00576 39.5049 1.86585 38.7265 1.31193C38.3388 1.03497 37.549 1.05352 36.9132 1.15488C36.4085 1.23625 35.9352 1.37901 35.4676 1.50893C34.5752 1.75734 33.6686 1.85727 32.6764 1.65455C32.1632 1.55033 31.6101 1.5432 31.0969 1.65598C29.2266 2.06714 27.2593 1.98006 25.349 1.84444C23.4188 1.70738 21.4887 1.64455 19.5528 1.57602C18.9084 1.55318 18.2327 1.55034 17.6283 1.45184C15.0651 1.02355 12.3422 0.940748 9.51394 0.525309ZM111.496 8.11742L111.458 8.13597C111.781 8.14311 111.878 8.18166 111.721 8.21592C111.684 8.22449 111.572 8.15312 111.496 8.11742ZM105.671 7.81189C106.569 7.48925 107.589 7.40788 108.656 7.46213C108.813 7.4707 109.046 7.5835 109.063 7.65916C109.081 7.73054 108.878 7.879 108.747 7.88756C107.706 7.94752 106.663 7.95468 105.642 7.79621C105.554 7.81191 105.463 7.82763 105.374 7.84333C105.474 7.83334 105.574 7.82189 105.671 7.81189ZM127.043 9.42083C126.629 9.46509 126.127 9.60643 125.822 9.53648C124.636 9.26237 123.396 9.09963 122.139 8.93974C121.186 8.81839 120.34 8.57427 119.758 8.15312C119.707 8.11742 119.707 8.04318 119.744 8.00178C119.784 7.95895 119.903 7.90328 119.983 7.90614C121.703 7.95611 123.427 7.79336 125.147 7.94469C125.566 7.98181 126.022 8.00606 126.432 7.96609C128.371 7.77336 130.296 7.79762 132.223 7.99892C132.534 8.03176 132.867 8.01179 133.192 8.0175C134.917 8.04891 136.654 8.03748 138.367 8.12457C140.189 8.21879 142.005 8.31872 143.841 8.333C144.36 8.33728 144.885 8.44863 145.387 8.54143C145.538 8.56998 145.695 8.70274 145.695 8.78697C145.692 8.87691 145.549 9.00113 145.392 9.04824C144.437 9.33662 143.357 9.41515 142.276 9.41372C140.009 9.41087 137.74 9.40801 135.479 9.33662C134.379 9.30236 133.341 9.29663 132.3 9.49078C131.912 9.56359 131.348 9.64214 131.057 9.55648C129.991 9.24241 128.99 9.47367 127.952 9.53934C127.653 9.5579 127.325 9.47367 127.011 9.43655L127.043 9.42083ZM57.0648 7.06953C57.0648 6.75117 57.3557 6.60986 58.0913 6.58987C62.7243 6.46567 67.3517 6.52132 71.9705 6.74403C72.0731 6.74974 72.1729 6.77687 72.2784 6.78829C72.6376 6.82541 72.9313 7.11236 72.8287 7.31365C72.6547 7.65343 72.2556 7.9247 71.5799 7.98324C70.85 8.04462 70.0773 8.04746 69.3418 8.00321C68.3838 7.94467 67.4486 7.77479 66.4906 7.72483C65.2076 7.65773 63.9018 7.69198 62.7528 7.31794C62.5846 7.26369 62.3166 7.22658 62.1313 7.25227C60.566 7.46642 58.958 6.89396 57.3985 7.30797C57.3785 7.31368 57.1789 7.15376 57.0648 7.06953ZM140.939 7.65916C140.622 7.65916 139.75 7.70341 138.903 7.65059C136.004 7.47213 133.096 7.47927 130.185 7.46499C129.754 7.46356 129.323 7.43788 128.899 7.40504C128.585 7.38077 128.3 7.32081 128.152 7.15663C128.052 7.04385 128.368 6.90395 128.782 6.87968C129.956 6.80973 131.137 6.75119 132.306 6.65982C133.175 6.59272 134.022 6.56703 134.855 6.73263C135.69 6.89824 136.54 6.8754 137.404 6.8083C137.934 6.7669 138.484 6.70694 139.009 6.73549C140.839 6.83542 142.661 6.85397 144.48 6.6898C144.58 6.68123 144.717 6.6855 144.796 6.71263C145.053 6.80257 145.318 6.89252 145.529 7.00673C145.735 7.11808 145.566 7.3608 145.321 7.4179C144.081 7.70628 142.752 7.50498 140.939 7.65916ZM144.614 10.5815C144.292 10.6429 144.047 10.7043 143.787 10.7343C143.485 10.7714 143.066 10.7571 142.992 10.9284C142.883 11.1754 142.678 11.3124 142.165 11.3153C141.951 11.3167 141.737 11.3167 141.523 11.3224C138.304 11.4024 135.117 11.2439 131.938 11.0141C131.764 11.0012 131.599 10.9113 131.462 10.8414C131.319 10.7657 131.727 10.5644 132.101 10.5401C132.733 10.4973 133.369 10.443 134.008 10.4316C135.505 10.4016 137.002 10.3759 138.498 10.3816C140.423 10.3888 142.347 10.4287 144.269 10.4587C144.352 10.4616 144.426 10.513 144.614 10.5815ZM142.325 9.8006C138.387 10.1504 137.991 10.1418 136.868 9.79632C138.279 9.7849 139.531 9.7692 140.782 9.76491C141.298 9.76349 141.811 9.78776 142.325 9.8006ZM123.034 6.91394C123.216 6.80116 123.311 6.68552 123.467 6.65554C124.086 6.53704 124.705 6.55703 125.198 6.80116C125.298 6.85112 125.318 7.02956 125.229 7.07239C124.745 7.30224 124.143 7.39217 123.524 7.24227C123.299 7.18659 123.185 7.01959 123.034 6.91394ZM106.5 6.24579C107.11 6.07019 107.721 6.23295 108.325 6.25579C108.727 6.2715 109.12 6.36143 109.511 6.42853C109.585 6.44138 109.685 6.53133 109.665 6.54703C109.565 6.61984 109.397 6.7412 109.306 6.7312C108.393 6.62984 107.492 6.50707 106.592 6.38287C106.54 6.37573 106.529 6.29433 106.5 6.24579ZM123.884 10.867C124.055 10.8185 124.22 10.7328 124.394 10.7271C125.429 10.6972 126.467 10.6843 127.504 10.6743C127.581 10.6729 127.696 10.7271 127.735 10.7685C127.841 10.8799 127.753 10.9884 127.51 10.9912C126.47 11.0041 125.429 11.0026 124.388 10.9927C124.22 10.9912 124.052 10.9113 123.884 10.867ZM114.714 8.22307C114.808 8.1317 114.854 7.99035 114.999 7.95751C115.695 7.80333 116.357 7.94896 116.536 8.29588C116.576 8.3744 116.445 8.53571 116.308 8.56711C115.701 8.70702 114.954 8.53286 114.714 8.22307ZM73.7268 9.822C73.4617 9.79488 73.1509 9.77919 72.8686 9.72779C72.6975 9.69781 72.5692 9.61216 72.421 9.55077C72.5635 9.48224 72.6861 9.39371 72.8543 9.35088C73.3162 9.23239 73.818 9.15674 74.3198 9.26667C74.4737 9.30094 74.6392 9.41798 74.642 9.49936C74.6449 9.58216 74.4909 9.69066 74.3426 9.74348C74.1915 9.79773 73.9606 9.79488 73.7268 9.822ZM79.5459 7.62919C79.3463 7.60063 79.1068 7.59776 78.9614 7.5378C78.8417 7.48783 78.8131 7.37076 78.7903 7.28082C78.7846 7.25655 78.9357 7.20375 79.027 7.19661C79.2294 7.17948 79.4546 7.15805 79.6457 7.18375C79.8253 7.20802 80.0163 7.27511 80.1304 7.35077C80.2815 7.45499 79.908 7.63061 79.5459 7.62919ZM22.4409 8.60138C21.9249 8.62279 21.6426 8.65277 21.3689 8.63849C21.2206 8.62993 21.0866 8.54427 20.9469 8.49287C21.1123 8.46147 21.2891 8.39296 21.4402 8.40581C21.7082 8.43008 21.9619 8.50287 22.4409 8.60138ZM113.323 6.87968C113.235 6.9011 113.132 6.94534 113.058 6.93677C112.87 6.91393 112.682 6.87681 112.513 6.82684C112.451 6.80828 112.402 6.73406 112.422 6.69265C112.471 6.57844 112.904 6.53991 113.223 6.62985C113.437 6.68981 113.457 6.78403 113.323 6.87968ZM137.389 6.01453C138.048 5.93887 138.302 5.90176 138.558 5.8832C138.632 5.87749 138.755 5.9146 138.795 5.94887C138.9 6.04309 138.806 6.13018 138.561 6.12875C138.305 6.13018 138.051 6.08306 137.389 6.01453ZM100.955 6.52989C100.981 6.49419 100.989 6.43709 101.04 6.4271C101.092 6.41568 101.183 6.44708 101.254 6.45993C101.229 6.49562 101.22 6.5513 101.169 6.56272C101.12 6.57414 101.029 6.54273 100.955 6.52989ZM69.0823 5.42204L68.8913 5.39636L69.0338 5.34498L69.0823 5.42204ZM116.462 6.96246L116.265 7.02245L116.237 6.92677L116.462 6.96246ZM133.121 6.04736L133.158 5.95883L133.324 6.0131L133.121 6.04736Z" fill="#353F44"/>
<path d="M127.011 9.43655C126.909 9.30949 126.934 9.13958 126.566 9.10104C126.569 9.14244 126.538 9.20098 126.581 9.22383C126.72 9.29664 126.889 9.35658 127.045 9.42082C127.043 9.42082 127.011 9.43655 127.011 9.43655Z" fill="#353F44"/>
</svg>
