<svg width="97" height="97" viewBox="0 0 97 97" fill="none" xmlns="http://www.w3.org/2000/svg">
<path d="M33.8028 48.4999C38.7017 43.601 43.6008 41.1514 48.4997 41.1514C53.3986 41.1514 58.2977 43.601 63.1966 48.4999C68.9121 43.601 73.1987 41.1514 76.0566 41.1514C78.9142 41.1514 83.2008 43.601 88.9163 48.4999C88.9163 26.1784 70.8212 8.08325 48.4997 8.08325C26.1782 8.08325 8.08301 26.1784 8.08301 48.4999C13.7985 43.601 18.0851 41.1514 20.9428 41.1514C23.8006 41.1514 28.0872 43.601 33.8028 48.4999Z" stroke="#035271" stroke-width="6" stroke-linejoin="round"/>
<path d="M8.08301 48.5L48.4997 88.9167L33.8028 48.5" stroke="#035271" stroke-width="6" stroke-linecap="round" stroke-linejoin="round"/>
<path d="M63.1969 48.5L48.5 88.9167L88.9167 48.5" stroke="#035271" stroke-width="6" stroke-linecap="round" stroke-linejoin="round"/>
</svg>
