<svg width="45" height="45" viewBox="0 0 45 45" fill="none" xmlns="http://www.w3.org/2000/svg">
<path d="M22.5 16.875C26.1244 16.875 29.0625 13.9369 29.0625 10.3125C29.0625 6.68813 26.1244 3.75 22.5 3.75C18.8756 3.75 15.9375 6.68813 15.9375 10.3125C15.9375 13.9369 18.8756 16.875 22.5 16.875Z" stroke="#035271" stroke-width="3" stroke-linecap="round" stroke-linejoin="round"/>
<path d="M3.75 38.4375C3.75 30.1532 11.3052 23.4375 20.625 23.4375" stroke="#035271" stroke-width="3" stroke-linecap="round" stroke-linejoin="round"/>
<path d="M32.8125 37.5C35.9191 37.5 38.4375 34.9816 38.4375 31.875C38.4375 28.7684 35.9191 26.25 32.8125 26.25C29.7059 26.25 27.1875 28.7684 27.1875 31.875C27.1875 34.9816 29.7059 37.5 32.8125 37.5Z" stroke="#035271" stroke-width="3"/>
<path d="M37.5 35.625L41.25 38.4375" stroke="#035271" stroke-width="3" stroke-linecap="round" stroke-linejoin="round"/>
</svg>
