<svg width="45" height="45" viewBox="0 0 45 45" fill="none" xmlns="http://www.w3.org/2000/svg">
<path d="M22.75 4V19.9375" stroke="#035271" stroke-width="4" stroke-linecap="round" stroke-linejoin="round"/>
<path d="M22.75 4C12.3947 4 4 12.3947 4 22.75C4 33.1053 12.3947 41.5 22.75 41.5C33.1053 41.5 41.5 33.1053 41.5 22.75C41.5 18.4134 40.0278 14.4207 37.5558 11.2443" stroke="#035271" stroke-width="4" stroke-linecap="round"/>
<path d="M22.75 12.4375C17.0546 12.4375 12.4375 17.0546 12.4375 22.75C12.4375 28.4454 17.0546 33.0625 22.75 33.0625C28.4454 33.0625 33.0625 28.4454 33.0625 22.75C33.0625 20.3649 32.2528 18.1689 30.8932 16.4219" stroke="#035271" stroke-width="4" stroke-linecap="round"/>
<path d="M22.75 25.5625C24.3033 25.5625 25.5625 24.3033 25.5625 22.75C25.5625 21.1967 24.3033 19.9375 22.75 19.9375C21.1967 19.9375 19.9375 21.1967 19.9375 22.75C19.9375 24.3033 21.1967 25.5625 22.75 25.5625Z" stroke="#035271" stroke-width="4"/>
</svg>
