<svg width="45" height="45" viewBox="0 0 45 45" fill="none" xmlns="http://www.w3.org/2000/svg">
<path d="M4.6875 6.5625H10.3125L16.875 22.5H33.2812L40.3125 9.375" stroke="#035271" stroke-width="3" stroke-linecap="round" stroke-linejoin="round"/>
<path d="M19.6875 11.25H30.9375" stroke="#035271" stroke-width="3" stroke-linecap="round" stroke-linejoin="round"/>
<path d="M25.3125 5.625V16.875" stroke="#035271" stroke-width="3" stroke-linecap="round" stroke-linejoin="round"/>
<path d="M16.875 22.5L13.125 28.125H37.5" stroke="#035271" stroke-width="3" stroke-linecap="round" stroke-linejoin="round"/>
<path d="M17.8125 39.375C19.3658 39.375 20.625 38.1158 20.625 36.5625C20.625 35.0092 19.3658 33.75 17.8125 33.75C16.2592 33.75 15 35.0092 15 36.5625C15 38.1158 16.2592 39.375 17.8125 39.375Z" stroke="#035271" stroke-width="3"/>
<path d="M32.8125 39.375C34.3658 39.375 35.625 38.1158 35.625 36.5625C35.625 35.0092 34.3658 33.75 32.8125 33.75C31.2592 33.75 30 35.0092 30 36.5625C30 38.1158 31.2592 39.375 32.8125 39.375Z" stroke="#035271" stroke-width="3"/>
</svg>
