<svg width="97" height="97" viewBox="0 0 97 97" fill="none" xmlns="http://www.w3.org/2000/svg">
<path d="M36.375 12.125H16.1667C13.9345 12.125 12.125 13.9345 12.125 16.1667V36.375C12.125 38.6072 13.9345 40.4167 16.1667 40.4167H36.375C38.6072 40.4167 40.4167 38.6072 40.4167 36.375V16.1667C40.4167 13.9345 38.6072 12.125 36.375 12.125Z" stroke="#035271" stroke-width="6" stroke-linejoin="round"/>
<path d="M36.375 56.5833H16.1667C13.9345 56.5833 12.125 58.3927 12.125 60.6249V80.8333C12.125 83.0655 13.9345 84.8749 16.1667 84.8749H36.375C38.6072 84.8749 40.4167 83.0655 40.4167 80.8333V60.6249C40.4167 58.3927 38.6072 56.5833 36.375 56.5833Z" stroke="#035271" stroke-width="6" stroke-linejoin="round"/>
<path d="M70.7288 40.4167C78.5414 40.4167 84.8747 34.0834 84.8747 26.2708C84.8747 18.4583 78.5414 12.125 70.7288 12.125C62.9163 12.125 56.583 18.4583 56.583 26.2708C56.583 34.0834 62.9163 40.4167 70.7288 40.4167Z" stroke="#035271" stroke-width="6" stroke-linejoin="round"/>
<path d="M80.833 56.5833H60.6247C58.3925 56.5833 56.583 58.3927 56.583 60.6249V80.8333C56.583 83.0655 58.3925 84.8749 60.6247 84.8749H80.833C83.0652 84.8749 84.8747 83.0655 84.8747 80.8333V60.6249C84.8747 58.3927 83.0652 56.5833 80.833 56.5833Z" stroke="#035271" stroke-width="6" stroke-linejoin="round"/>
</svg>
