<svg width="20" height="20" viewBox="0 0 20 20" fill="none" xmlns="http://www.w3.org/2000/svg">
<g clip-path="url(#clip0_800_1664)">
<path d="M15.9688 11.1881L15.9688 4.03116L12.335 7.68389V7.68389C13.6617 6.35013 15.939 7.27978 15.9533 9.16098L15.9688 11.1881Z" fill="black"/>
<path d="M15.9688 4.03116L11.1975 4.03116L8.81185 4.03116L10.8271 4.03845C12.7253 4.04533 13.6737 6.33819 12.335 7.68389V7.68389L15.9688 4.03116Z" fill="black"/>
<path d="M5.55433 14.4456L12.335 7.68389M15.9688 4.03116L11.1975 4.03116L8.81185 4.03116M15.9688 4.03116L15.9688 11.1881M15.9688 4.03116L12.335 7.68389M6.42621 4.03116L8.81185 4.03116M15.9688 13.5737V11.1881M8.81185 4.03116L10.8271 4.03845C12.7253 4.04533 13.6737 6.33819 12.335 7.68389V7.68389M15.9688 11.1881L15.9533 9.16098C15.939 7.27978 13.6617 6.35013 12.335 7.68389V7.68389" stroke="black" stroke-width="2" stroke-linecap="round" stroke-linejoin="round"/>
</g>
<defs>
<clipPath id="clip0_800_1664">
<rect width="20" height="20" fill="white"/>
</clipPath>
</defs>
</svg>
