<?xml version="1.0" encoding="UTF-8"?>
<svg width="24px" height="24px" viewBox="0 0 24 24" version="1.1" xmlns="http://www.w3.org/2000/svg">
    <g stroke="none" stroke-width="1" fill="#0077B5" fill-rule="evenodd">
        <path d="M19,3 C20.1045695,3 21,3.8954305 21,5 L21,19 C21,20.1045695 20.1045695,21 19,21 L5,21 C3.8954305,21 3,20.1045695 3,19 L3,5 C3,3.8954305 3.8954305,3 5,3 L19,3 Z M18.5,18.5 L18.5,13.2 C18.5,11.5 17.1,10.1 15.4,10.1 C14.3,10.1 13.4,10.6 12.9,11.4 L12.9,10.3 L10.3,10.3 L10.3,18.5 L12.9,18.5 L12.9,13.6 C12.9,12.6 13.7,11.8 14.7,11.8 C15.7,11.8 16.5,12.6 16.5,13.6 L16.5,18.5 L18.5,18.5 Z M6.9,8.1 C7.8,8.1 8.5,7.4 8.5,6.5 C8.5,5.6 7.8,4.9 6.9,4.9 C6,4.9 5.3,5.6 5.3,6.5 C5.3,7.4 6,8.1 6.9,8.1 Z M8.2,18.5 L8.2,10.3 L5.6,10.3 L5.6,18.5 L8.2,18.5 Z"/>
    </g>
</svg>
