<?xml version="1.0" encoding="UTF-8"?>
<svg width="24px" height="24px" viewBox="0 0 24 24" version="1.1" xmlns="http://www.w3.org/2000/svg">
    <g stroke="none" stroke-width="1" fill="#FF0000" fill-rule="evenodd">
        <path d="M22.5401,6.42C22.4124,5.94 22.1789,5.49 21.8589,5.12C21.5389,4.75 21.1414,4.47 20.7001,4.31C18.9001,3.71 12.0001,3.71 12.0001,3.71C12.0001,3.71 5.10006,3.71 3.30006,4.31C2.85885,4.47 2.46127,4.75 2.14128,5.12C1.82129,5.49 1.58774,5.94 1.46006,6.42C1.14671,8.27579 0.991299,10.1561 0.996067,12.04C0.991299,13.9239 1.14671,15.8042 1.46006,17.66C1.58774,18.14 1.82129,18.59 2.14128,18.96C2.46127,19.33 2.85885,19.61 3.30006,19.77C5.10006,20.37 12.0001,20.37 12.0001,20.37C12.0001,20.37 18.9001,20.37 20.7001,19.77C21.1414,19.61 21.5389,19.33 21.8589,18.96C22.1789,18.59 22.4124,18.14 22.5401,17.66C22.8534,15.8042 23.0088,13.9239 23.0041,12.04C23.0088,10.1561 22.8534,8.27579 22.5401,6.42ZM9.75006,15.71V8.37L15.5001,12.04L9.75006,15.71Z"/>
    </g>
</svg>
