<svg width="126" height="37" viewBox="0 0 126 37" fill="none" xmlns="http://www.w3.org/2000/svg">
<g clip-path="url(#clip0_308_58)">
<path d="M13.8818 0.0133057H0V36.9866L13.8818 0.0133057Z" fill="black"/>
<path d="M23.6487 0.0133057H37.5124V36.9866L23.6487 0.0133057Z" fill="black"/>
<path d="M18.7653 13.6404L27.6008 36.9866H21.8039L19.1632 29.5537H12.6971L18.7653 13.6404Z" fill="black"/>
<path d="M60.1595 23.526L61.7964 28.7533C61.8506 28.8842 61.932 28.9446 62.0767 28.9446H65.2238C65.3957 28.9446 65.4228 28.854 65.3957 28.6626L58.8934 8.5494C58.8663 8.38825 58.8391 8.35803 58.6944 8.35803H54.7876C54.6791 8.35803 54.6158 8.44868 54.6158 8.57961C54.5615 9.63714 54.4802 9.95944 54.3626 10.2717L48.5657 28.6324C48.5386 28.854 48.6019 28.9446 48.7647 28.9446H51.5772C51.749 28.9446 51.8304 28.8842 51.8937 28.6928L53.4402 23.526H60.1595ZM54.3355 20.1117C55.1856 17.2514 56.307 13.5853 56.7591 11.4903H56.7863C57.347 13.686 58.6673 18.037 59.2642 20.1117H54.3355Z" fill="black"/>
<path d="M73.7548 29.2568C75.4459 29.2568 77.2456 28.9144 79.0724 28.0382C79.217 27.9777 79.2442 27.9072 79.2442 27.7561C79.1899 27.1921 79.1266 26.3763 79.1266 25.7519V6.81703C79.1266 6.69617 79.1266 6.63574 78.991 6.63574H75.9252C75.8077 6.63574 75.7534 6.69617 75.7534 6.85732V13.273C75.2741 13.2126 74.9395 13.1824 74.5416 13.1824C69.5948 13.1824 66.5562 16.8183 66.5562 21.3606C66.5562 26.6281 69.6762 29.2568 73.7548 29.2568ZM75.7534 25.7519C75.247 25.9332 74.6863 26.0037 74.1165 26.0037C71.8737 26.0037 70.0379 24.5936 70.0379 21.1692C70.0379 18.1377 71.928 16.3449 74.433 16.3449C74.9395 16.3449 75.3826 16.4053 75.7534 16.5665V25.7519Z" fill="black"/>
<path d="M89.0246 13.1824C84.8013 13.1824 82.1877 16.788 82.1877 21.2398C82.1877 25.2181 84.2677 29.2568 88.9613 29.2568C92.9314 29.2568 95.7168 26.0037 95.7168 21.139C95.7168 16.8485 93.3564 13.1824 89.0246 13.1824ZM88.8527 16.3449C91.2402 16.3449 92.2531 18.6312 92.2531 21.2398C92.2531 24.4627 90.7609 26.0641 89.0246 26.0641C86.8813 26.0641 85.6152 24.0598 85.6152 21.1693C85.6152 18.1981 86.9627 16.3449 88.8527 16.3449Z" fill="black"/>
<path d="M98.8863 6.63574C98.7687 6.63574 98.6873 6.69617 98.6873 6.85732V28.2899C98.6873 28.3806 98.7687 28.5418 98.8863 28.572C100.234 29.0353 101.645 29.2568 103.101 29.2568C107.27 29.2568 111.321 26.3763 111.321 20.575C111.321 16.3751 108.735 13.1824 104.683 13.1824C103.752 13.1824 102.884 13.3435 102.124 13.6255L102.088 6.88753C102.088 6.66596 102.033 6.63574 101.834 6.63574H98.8863ZM107.857 20.9577C107.857 24.4325 105.723 26.0641 103.417 26.0641C102.938 26.0641 102.513 26.0339 102.124 25.9029V16.7578C102.567 16.5665 103.101 16.4053 104.086 16.4053C106.311 16.4053 107.857 17.9765 107.857 20.9577Z" fill="black"/>
<path d="M122.762 22.0858C124.137 22.0858 125.267 22.0556 125.656 21.9548C125.801 21.9246 125.855 21.8642 125.882 21.7333C125.964 21.3908 126 20.6757 126 19.7995C126 16.8183 124.39 13.1824 120.23 13.1824C115.98 13.1824 113.619 17.0398 113.619 21.3908C113.619 25.2483 115.446 29.2568 120.565 29.2568C122.482 29.2568 123.721 28.9144 124.788 28.3504C124.897 28.29 124.951 28.1892 124.951 28.008V25.3994C124.951 25.2483 124.87 25.2181 124.788 25.2785C123.721 25.7821 122.563 26.0339 121.297 26.0339C118.431 26.0339 117.128 24.2713 117.047 22.0858H122.762ZM117.047 19.3866C117.273 17.8557 118.141 16.1938 120.086 16.1938C122.229 16.1938 122.79 18.1981 122.79 19.1045C122.79 19.1348 122.79 19.2657 122.79 19.3563C122.672 19.3866 122.31 19.3866 121.243 19.3866H117.047Z" fill="black"/>
</g>
<defs>
<clipPath id="clip0_308_58">
<rect width="126" height="37" fill="white"/>
</clipPath>
</defs>
</svg>
