<svg width="101" height="35" viewBox="0 0 101 35" fill="none" xmlns="http://www.w3.org/2000/svg">
<g clip-path="url(#clip0_308_81)">
<path d="M12.634 12.4886V16.2273H20.792C20.5754 18.2955 19.9257 19.8864 18.9149 20.9205C17.7598 22.1932 15.8828 23.625 12.634 23.625C7.65261 23.625 3.75411 19.1705 3.75411 13.6818C3.75411 8.19318 7.58041 3.73864 12.634 3.73864C15.3052 3.73864 17.3267 4.93182 18.7706 6.44318L21.153 3.81818C19.1315 1.67045 16.3881 0 12.634 0C5.77555 0 0 6.125 0 13.6818C0 21.2386 5.77555 27.3636 12.634 27.3636C16.3159 27.3636 19.1315 26.0114 21.2974 23.5455C23.5354 21.0795 24.2573 17.5795 24.2573 14.7955C24.2573 13.9205 24.1851 13.125 24.1129 12.4886H12.634Z" fill="black"/>
<path d="M34.3646 9.38635C29.9607 9.38635 26.2788 13.125 26.2788 18.2159C26.2788 23.3068 29.8885 27.0454 34.3646 27.0454C38.8406 27.0454 42.4504 23.3864 42.4504 18.2954C42.4504 13.125 38.8406 9.38635 34.3646 9.38635ZM34.3646 23.625C31.91 23.625 29.8163 21.3977 29.8163 18.2954C29.8163 15.1136 31.91 12.9659 34.3646 12.9659C36.8192 12.9659 38.9128 15.1136 38.9128 18.2954C38.9128 21.3977 36.8192 23.625 34.3646 23.625Z" fill="black"/>
<path d="M73.855 11.375H73.7106C72.9164 10.3409 71.4003 9.38635 69.4511 9.38635C65.4082 9.38635 61.9429 13.2045 61.9429 18.2159C61.9429 23.1477 65.4082 27.0454 69.4511 27.0454C71.4003 27.0454 72.9164 26.0909 73.7106 25.0568H73.855V26.3295C73.855 29.6704 72.1945 31.5 69.5955 31.5C67.4296 31.5 66.1301 29.8295 65.5526 28.3182L62.5204 29.75C63.3868 32.0568 65.7692 35 69.6677 35C73.7828 35 77.3203 32.2954 77.3203 25.7727V9.86362H73.9993V11.375H73.855ZM69.8121 23.625C67.3574 23.625 65.5526 21.3182 65.5526 18.2954C65.5526 15.1932 67.4296 12.9659 69.8121 12.9659C72.1945 12.9659 74.0715 15.2727 74.0715 18.375C74.1437 21.3977 72.2667 23.625 69.8121 23.625Z" fill="black"/>
<path d="M52.3409 9.38635C47.937 9.38635 44.2551 13.125 44.2551 18.2159C44.2551 23.3068 47.8648 27.0454 52.3409 27.0454C56.817 27.0454 60.4267 23.3864 60.4267 18.2954C60.4267 13.125 56.817 9.38635 52.3409 9.38635ZM52.3409 23.625C49.8863 23.625 47.7927 21.3977 47.7927 18.2954C47.7927 15.1136 49.8863 12.9659 52.3409 12.9659C54.7955 12.9659 56.8892 15.1136 56.8892 18.2954C56.8892 21.3977 54.7955 23.625 52.3409 23.625Z" fill="black"/>
<path d="M79.9915 0.397705H83.4568V27.125H79.9915V0.397705Z" fill="black"/>
<path d="M94.1416 23.625C92.3367 23.625 91.1094 22.75 90.2431 20.9204L101 16.0682L100.639 15.0341C99.9893 13.0454 97.8957 9.38635 93.7806 9.38635C89.6655 9.38635 86.2002 12.9659 86.2002 18.2159C86.2002 23.1477 89.5933 27.0454 94.1416 27.0454C97.8235 27.0454 99.9171 24.5795 100.856 23.1477L98.1123 21.1591C97.1737 22.6704 95.9464 23.625 94.1416 23.625ZM93.925 12.7273C95.3689 12.7273 96.5962 13.5227 96.9572 14.6364L89.7377 17.9773C89.6655 14.3182 92.1201 12.7273 93.925 12.7273Z" fill="black"/>
</g>
<defs>
<clipPath id="clip0_308_81">
<rect width="101" height="35" fill="white"/>
</clipPath>
</defs>
</svg>
