<svg width="96" height="45" viewBox="0 0 96 45" fill="none" xmlns="http://www.w3.org/2000/svg">
<path fill-rule="evenodd" clip-rule="evenodd" d="M96 23.251C96 15.5608 92.6933 9.49268 86.3733 9.49268C80.0266 9.49268 76.1866 15.5608 76.1866 23.1909C76.1866 32.233 80.72 36.7991 87.2266 36.7991C90.4 36.7991 92.8 35.988 94.6133 34.8465V28.8385C92.8 29.8598 90.72 30.4907 88.08 30.4907C85.4933 30.4907 83.2 29.4693 82.9066 25.9246H95.9466C95.9466 25.5341 96 23.972 96 23.251ZM82.8266 20.3972C82.8266 17.0027 84.6666 15.5908 86.3466 15.5908C87.9733 15.5908 89.7066 17.0027 89.7066 20.3972H82.8266Z" fill="black"/>
<path fill-rule="evenodd" clip-rule="evenodd" d="M65.8934 9.49268C63.28 9.49268 61.6 10.8745 60.6667 11.8358L60.32 9.97332H54.4534V45L61.12 43.4079L61.1467 34.9066C62.1067 35.6876 63.52 36.7991 65.8667 36.7991C70.64 36.7991 74.9867 32.4733 74.9867 22.9506C74.96 14.239 70.56 9.49268 65.8934 9.49268ZM64.2934 30.1903C62.72 30.1903 61.7867 29.5594 61.1467 28.7784L61.12 17.6335C61.8134 16.7624 62.7734 16.1616 64.2934 16.1616C66.72 16.1616 68.4 19.2257 68.4 23.1609C68.4 27.1863 66.7467 30.1903 64.2934 30.1903Z" fill="black"/>
<path fill-rule="evenodd" clip-rule="evenodd" d="M45.28 7.72029L51.9734 6.09813V0L45.28 1.59212V7.72029Z" fill="black"/>
<path d="M51.9734 10.0034H45.28V36.2885H51.9734V10.0034Z" fill="black"/>
<path fill-rule="evenodd" clip-rule="evenodd" d="M38.1066 12.2262L37.68 10.0033H31.92V36.2883H38.5867V18.4746C40.16 16.1615 42.8267 16.582 43.6533 16.9125V10.0033C42.8 9.64278 39.68 8.9819 38.1066 12.2262Z" fill="black"/>
<path fill-rule="evenodd" clip-rule="evenodd" d="M24.7733 3.48462L18.2667 5.0467L18.24 29.1088C18.24 33.5547 21.2 36.8291 25.1467 36.8291C27.3333 36.8291 28.9333 36.3785 29.8133 35.8378V29.7396C28.96 30.1301 24.7467 31.512 24.7467 27.0661V16.4018H29.8133V10.0033H24.7467L24.7733 3.48462Z" fill="black"/>
<path fill-rule="evenodd" clip-rule="evenodd" d="M6.74667 17.6335C6.74667 16.462 7.6 16.0114 9.01334 16.0114C11.04 16.0114 13.6 16.7023 15.6267 17.9339V10.8745C13.4133 9.8832 11.2267 9.49268 9.01334 9.49268C3.6 9.49268 0 12.6769 0 17.994C0 26.2851 10.1333 24.9633 10.1333 28.5381C10.1333 29.9199 9.06667 30.3705 7.57334 30.3705C5.36 30.3705 2.53333 29.3492 0.293333 27.9673V35.1168C2.77333 36.3184 5.28 36.8291 7.57334 36.8291C13.12 36.8291 16.9333 33.735 16.9333 28.3578C16.9067 19.4059 6.74667 20.998 6.74667 17.6335Z" fill="black"/>
</svg>
