<svg width="112" height="37" viewBox="0 0 112 37" fill="none" xmlns="http://www.w3.org/2000/svg">
<g clip-path="url(#clip0_308_89)">
<path d="M37 8.27759H42.9118L47.4706 21.2229H47.6176L51.7353 8.27759H57.3235L50.2353 27.3222H44.3235L37 8.27759Z" fill="black"/>
<path d="M15.3235 12.9453H9.88235V19.3558C9.88235 20.4449 10.0294 21.8452 10.9118 22.4676C11.7941 23.09 13.1176 22.9344 14.1471 22.7788C14.7353 22.7788 15.0294 22.6232 15.3235 22.312V27.1354C14.5882 27.291 14 27.4466 13.2647 27.6022C9.44118 28.069 3.82353 27.291 3.82353 22.0008V12.9453H0V8.27754H3.82353V2.6762H9.88235V8.27754H15.3235V12.9453ZM30.8235 8.27754H36.2647V27.3221H30.8235V8.27754ZM30.5294 3.11186C30.5294 1.40034 31.8529 0 33.4706 0C35.0882 0 36.4118 1.40034 36.4118 3.11186C36.4118 4.82338 35.0882 6.22372 33.4706 6.22372C32 6.25484 30.5294 4.82338 30.5294 3.11186Z" fill="black"/>
<path d="M98.9117 17.7688C98.9117 20.2583 100.382 22.5922 102.882 22.5922C105.529 22.5922 106.853 20.4139 106.853 17.7688C106.853 15.2793 105.382 12.9454 102.882 12.9454C100.235 12.9454 98.9117 15.1237 98.9117 17.7688ZM93.9117 17.7688C93.9117 13.7234 95.9706 9.80242 99.647 8.40208C103.324 7.00174 107.765 8.09089 110.118 11.3583C112.324 14.4702 112.618 19.1691 110.853 22.7477C109.088 26.482 104.971 28.1935 101.118 27.4155C96.5588 26.6687 93.9117 22.4677 93.9117 17.7688Z" fill="black"/>
<path d="M88 8.12201V10.7671H87.8529C87.7058 10.6115 87.5588 10.4559 87.2647 9.98913C83.7353 6.72167 77.5294 7.34405 75.3235 12.0118C74.147 14.3457 74 17.302 74.2941 19.9782C74.5882 22.3121 75.4706 24.9572 77.3823 26.3886C79.5882 27.9446 82.5294 28.2557 85.0588 27.1666C86.2353 26.6998 86.9706 25.7663 87.2647 25.2995V27.1666C87.2647 28.5669 86.9706 29.6561 86.2353 30.434C84.6176 32.1456 81.6764 31.99 79.5882 31.5232C78.5588 31.212 77.3823 30.7452 76.3529 29.9673L73.8529 34.1683C75.3235 35.2574 76.647 35.8798 78.1176 36.3466C82.0882 37.4357 87.5588 37.4357 90.5 34.1683C92.2647 32.3012 92.8529 29.6561 92.8529 25.8907V8.12201H88ZM86.6764 21.2229C85.2058 23.0901 82.2647 23.0901 80.7941 21.2229C79.3235 19.3558 79.3235 16.0884 80.7941 14.1901C82.2647 12.2919 85.2058 12.323 86.6764 14.1901C88.147 16.0573 88.147 19.3558 86.6764 21.2229C87.4117 20.2894 85.9411 22.1565 86.6764 21.2229Z" fill="black"/>
<path d="M16.7942 8.27757H22.3824V11.3894C22.9706 10.1447 23.7059 9.36672 24.4412 8.74435C26.2059 7.49961 29 7.96639 29.2942 8.12198V13.4121C28.1177 13.101 25.7647 12.6342 24.1471 13.7233C23.1177 14.3457 22.2353 15.2793 22.2353 19.4803V27.4466H16.6471V8.27757H16.7942Z" fill="black"/>
<path d="M62.5 19.6669C61.4706 20.4449 60.5882 21.8452 61.6177 22.9344C62.6471 24.0235 64.4118 23.8679 65.5882 23.4012C66.9118 22.9344 67.9412 21.8452 67.9412 20.1337V18.889C68.1177 19.0446 63.9706 18.7023 62.5 19.6669ZM68.1177 24.9571C67.3824 25.8907 66.6471 26.6686 65.6177 27.1354C61.6471 28.8469 56.0294 27.1354 56.0294 22.0008C56.0294 16.5551 61.6177 15.4348 65.6177 15.2792H68.1177C68.1177 14.1901 67.8235 13.4121 67.0882 12.7897C65.7647 11.545 63.7059 11.7006 62.0882 12.4785C61.3529 12.9453 60.6177 13.4121 60.0294 14.1901L57.0882 10.9226C58.1177 9.98905 59.2941 9.21109 60.7647 8.58872C63.1177 7.65516 66.0588 7.49957 68.4412 8.27753C70.7941 8.8999 72.2647 10.9226 72.8529 13.4121C73.1471 14.6568 73.1471 16.0572 73.1471 17.6131V27.291H68.1471C68.1177 27.291 68.1177 24.9571 68.1177 24.9571Z" fill="black"/>
</g>
<defs>
<clipPath id="clip0_308_89">
<rect width="112" height="37" fill="white"/>
</clipPath>
</defs>
</svg>
