<svg width="127" height="37" viewBox="0 0 127 37" fill="none" xmlns="http://www.w3.org/2000/svg">
<g clip-path="url(#clip0_308_69)">
<path d="M30.809 16.4322C24.762 12.9439 14.7876 12.6232 9.01497 14.325C8.08793 14.5981 7.1077 14.0898 6.82681 13.1894C6.54592 12.2885 7.06867 11.337 7.99631 11.0633C14.6229 9.10924 25.6386 9.48677 32.6 13.5008C33.434 13.9814 33.7075 15.0274 33.2131 15.8362C32.7185 16.646 31.6408 16.9129 30.809 16.4322ZM30.611 21.5987C30.1869 22.2675 29.2868 22.477 28.5994 22.0667C23.5579 19.0565 15.8704 18.1845 9.90603 19.9431C9.13258 20.1701 8.31562 19.7465 8.08077 18.9966C7.84764 18.2453 8.28395 17.4532 9.05601 17.2248C15.8695 15.2165 24.3395 16.1892 30.1298 19.6456C30.8173 20.0569 31.0337 20.9317 30.611 21.5987ZM28.3155 26.5606C27.9786 27.0975 27.2586 27.2658 26.708 26.9386C22.3026 24.3234 16.7579 23.7326 10.2279 25.1815C9.59853 25.3217 8.97147 24.9385 8.82787 24.3274C8.68377 23.7162 9.07657 23.1072 9.70731 22.9677C16.8532 21.3809 22.9831 22.0639 27.9278 24.9988C28.4791 25.3257 28.6527 26.0254 28.3155 26.5606ZM19.7122 0.277893C9.35177 0.277893 0.952576 8.436 0.952576 18.4997C0.952576 28.5643 9.35177 36.7222 19.7122 36.7222C30.0731 36.7222 38.4719 28.5643 38.4719 18.4997C38.4719 8.436 30.0731 0.277893 19.7122 0.277893Z" fill="black"/>
<path d="M51.9911 17.1001C48.7521 16.3498 48.1752 15.8231 48.1752 14.7169C48.1752 13.6714 49.1887 12.9681 50.6954 12.9681C52.156 12.9681 53.604 13.5023 55.1226 14.602C55.1685 14.6353 55.2261 14.6486 55.2827 14.6399C55.3394 14.6316 55.3894 14.6016 55.4228 14.5559L57.0043 12.3904C57.0692 12.3014 57.0515 12.1782 56.964 12.1101C55.1568 10.7016 53.1219 10.0169 50.7433 10.0169C47.246 10.0169 44.8032 12.0553 44.8032 14.9724C44.8032 18.1004 46.9105 19.2078 50.552 20.0628C53.6515 20.7563 54.1745 21.3371 54.1745 22.3759C54.1745 23.5267 53.1168 24.2422 51.4145 24.2422C49.524 24.2422 47.9817 23.6236 46.2566 22.1724C46.2138 22.1367 46.1551 22.1202 46.1009 22.1232C46.044 22.1278 45.9918 22.1535 45.9555 22.1959L44.1822 24.2459C44.1078 24.331 44.1172 24.458 44.203 24.5315C46.2104 26.2721 48.6788 27.1917 51.3428 27.1917C55.1114 27.1917 57.5466 25.1913 57.5466 22.0956C57.5466 19.4793 55.9373 18.0323 51.9911 17.1001Z" fill="black"/>
<path d="M68.8084 20.6066C68.8084 22.8159 67.4074 24.3575 65.4014 24.3575C63.4182 24.3575 61.9222 22.7458 61.9222 20.6066C61.9222 18.4677 63.4182 16.8558 65.4014 16.8558C67.3752 16.8558 68.8084 18.4328 68.8084 20.6066ZM66.0728 13.9971C64.4393 13.9971 63.0994 14.6221 61.9946 15.9026V14.4613C61.9946 14.3475 61.8996 14.2548 61.7825 14.2548H58.8824C58.7652 14.2548 58.6705 14.3475 58.6705 14.4613V30.4768C58.6705 30.5906 58.7652 30.6832 58.8824 30.6832H61.7825C61.8996 30.6832 61.9946 30.5906 61.9946 30.4768V25.4216C63.0997 26.6262 64.4397 27.2145 66.0728 27.2145C69.1079 27.2145 72.1805 24.945 72.1805 20.6066C72.1805 16.2672 69.1079 13.9971 66.0728 13.9971Z" fill="black"/>
<path d="M80.0564 24.3806C77.9773 24.3806 76.4099 22.7579 76.4099 20.6065C76.4099 18.4461 77.9231 16.8783 80.0085 16.8783C82.101 16.8783 83.6789 18.5009 83.6789 20.6537C83.6789 22.8139 82.1554 24.3806 80.0564 24.3806ZM80.0564 13.9971C76.1476 13.9971 73.0853 16.9208 73.0853 20.6537C73.0853 24.3461 76.1265 27.2391 80.0085 27.2391C83.9312 27.2391 87.0028 24.3253 87.0028 20.6065C87.0028 16.9003 83.9522 13.9971 80.0564 13.9971Z" fill="black"/>
<path d="M95.35 14.2548H92.1585V11.0853C92.1585 10.9715 92.064 10.879 91.9468 10.879H89.0469C88.9296 10.879 88.8341 10.9715 88.8341 11.0853V14.2548H87.4396C87.3227 14.2548 87.2284 14.3475 87.2284 14.4613V16.8824C87.2284 16.9961 87.3227 17.0888 87.4396 17.0888H88.8341V23.3537C88.8341 25.8855 90.1314 27.1691 92.6898 27.1691C93.7302 27.1691 94.5933 26.9604 95.4067 26.5124C95.4728 26.4765 95.514 26.4073 95.514 26.3337V24.0281C95.514 23.9569 95.4757 23.8899 95.4132 23.8525C95.35 23.814 95.2714 23.8121 95.2066 23.8432C94.6479 24.1162 94.1079 24.2422 93.5041 24.2422C92.5738 24.2422 92.1585 23.832 92.1585 22.9123V17.0888H95.35C95.4672 17.0888 95.5615 16.9961 95.5615 16.8824V14.4613C95.5615 14.3475 95.4672 14.2548 95.35 14.2548Z" fill="black"/>
<path d="M106.469 14.2672V13.8779C106.469 12.7327 106.921 12.222 107.935 12.222C108.54 12.222 109.026 12.3386 109.569 12.5149C109.636 12.5353 109.706 12.5251 109.761 12.4862C109.817 12.4472 109.848 12.3848 109.848 12.3186V9.94463C109.848 9.85389 109.788 9.7736 109.699 9.74705C109.124 9.58103 108.389 9.41043 107.288 9.41043C104.609 9.41043 103.193 10.8757 103.193 13.6464V14.2426H101.8C101.683 14.2426 101.587 14.3351 101.587 14.4489V16.8824C101.587 16.9961 101.683 17.0888 101.8 17.0888H103.193V26.7521C103.193 26.866 103.288 26.9585 103.405 26.9585H106.305C106.422 26.9585 106.517 26.866 106.517 26.7521V17.0888H109.225L113.373 26.7496C112.902 27.7646 112.439 27.9666 111.807 27.9666C111.296 27.9666 110.758 27.8184 110.208 27.526C110.156 27.4983 110.095 27.4938 110.039 27.5105C109.984 27.5296 109.937 27.5695 109.914 27.6219L108.931 29.7167C108.884 29.8157 108.924 29.9319 109.022 29.9833C110.048 30.5231 110.974 30.7535 112.119 30.7535C114.261 30.7535 115.444 29.7844 116.488 27.1776L121.52 14.5483C121.545 14.4848 121.537 14.4132 121.497 14.3566C121.457 14.3009 121.393 14.2672 121.323 14.2672H118.304C118.213 14.2672 118.132 14.3229 118.103 14.4053L115.01 22.9869L111.622 14.3997C111.591 14.3198 111.512 14.2672 111.424 14.2672H106.469Z" fill="black"/>
<path d="M100.023 14.2547H97.1228C97.0057 14.2547 96.9105 14.3474 96.9105 14.4612V26.7521C96.9105 26.8659 97.0057 26.9584 97.1228 26.9584H100.023C100.14 26.9584 100.235 26.8659 100.235 26.7521V14.4612C100.235 14.3474 100.14 14.2547 100.023 14.2547Z" fill="black"/>
<path d="M98.5877 8.65834C97.4389 8.65834 96.5063 9.56202 96.5063 10.6778C96.5063 11.7946 97.4389 12.6991 98.5877 12.6991C99.7362 12.6991 100.668 11.7946 100.668 10.6778C100.668 9.56202 99.7362 8.65834 98.5877 8.65834Z" fill="black"/>
<path d="M124.114 15.4773H123.583V16.1355H124.114C124.38 16.1355 124.538 16.0095 124.538 15.8062C124.538 15.5921 124.38 15.4773 124.114 15.4773ZM124.459 16.4163L125.036 17.2015H124.549L124.03 16.4813H123.583V17.2015H123.176V15.1203H124.131C124.629 15.1203 124.956 15.3677 124.956 15.7841C124.956 16.1252 124.753 16.3337 124.459 16.4163ZM124.006 14.4279C122.961 14.4279 122.17 15.235 122.17 16.2236C122.17 17.2117 122.955 18.0081 123.996 18.0081C125.041 18.0081 125.833 17.2015 125.833 16.2124C125.833 15.2243 125.047 14.4279 124.006 14.4279ZM123.996 18.2064C122.848 18.2064 121.955 17.3109 121.955 16.2236C121.955 15.1362 122.859 14.2305 124.006 14.2305C125.154 14.2305 126.047 15.1259 126.047 16.2124C126.047 17.2998 125.143 18.2064 123.996 18.2064Z" fill="black"/>
</g>
<defs>
<clipPath id="clip0_308_69">
<rect width="127" height="37" fill="white"/>
</clipPath>
</defs>
</svg>
