<svg width="153" height="151" viewBox="0 0 153 151" fill="none" xmlns="http://www.w3.org/2000/svg">
<g filter="url(#filter0_dddd_19_554)">
<path d="M139.824 4H35.1764C30.1084 4 26 8.11263 26 13.1856V114.814C26 119.887 30.1084 124 35.1764 124H139.824C144.892 124 149 119.887 149 114.814V13.1856C149 8.11263 144.892 4 139.824 4Z" stroke="#3764BA" stroke-width="4" stroke-linecap="round" stroke-linejoin="round"/>
<path d="M86.528 22.1901H45.076C42.9539 22.1901 41.2336 23.912 41.2336 26.0362V57.9816C41.2336 60.1057 42.9539 61.8281 45.076 61.8281H86.528C88.6501 61.8281 90.3704 60.1057 90.3704 57.9816V26.0362C90.3704 23.912 88.6501 22.1901 86.528 22.1901Z" fill="white" stroke="#F26C1E" stroke-width="4" stroke-linecap="round" stroke-linejoin="round"/>
<path d="M128.522 70.1991H45.076C42.9539 70.1991 41.2336 71.921 41.2336 74.0451V101.828C41.2336 103.952 42.9539 105.674 45.076 105.674H128.522C130.645 105.674 132.365 103.952 132.365 101.828V74.0451C132.365 71.921 130.645 70.1991 128.522 70.1991Z" fill="white" stroke="#F26C1E" stroke-width="4" stroke-linecap="round" stroke-linejoin="round"/>
<path d="M128.568 22.1901H104.203C102.081 22.1901 100.361 23.912 100.361 26.0362V57.9816C100.361 60.1057 102.081 61.8281 104.203 61.8281H128.568C130.69 61.8281 132.41 60.1057 132.41 57.9816V26.0362C132.41 23.912 130.69 22.1901 128.568 22.1901Z" fill="white" stroke="#F26C1E" stroke-width="4" stroke-linecap="round" stroke-linejoin="round"/>
</g>
<defs>
<filter id="filter0_dddd_19_554" x="0" y="0" width="153" height="151" filterUnits="userSpaceOnUse" color-interpolation-filters="sRGB">
<feFlood flood-opacity="0" result="BackgroundImageFix"/>
<feColorMatrix in="SourceAlpha" type="matrix" values="0 0 0 0 0 0 0 0 0 0 0 0 0 0 0 0 0 0 127 0" result="hardAlpha"/>
<feOffset dx="-1" dy="1"/>
<feGaussianBlur stdDeviation="1.5"/>
<feColorMatrix type="matrix" values="0 0 0 0 0 0 0 0 0 0 0 0 0 0 0 0 0 0 0.1 0"/>
<feBlend mode="normal" in2="BackgroundImageFix" result="effect1_dropShadow_19_554"/>
<feColorMatrix in="SourceAlpha" type="matrix" values="0 0 0 0 0 0 0 0 0 0 0 0 0 0 0 0 0 0 127 0" result="hardAlpha"/>
<feOffset dx="-4" dy="4"/>
<feGaussianBlur stdDeviation="3"/>
<feColorMatrix type="matrix" values="0 0 0 0 0 0 0 0 0 0 0 0 0 0 0 0 0 0 0.09 0"/>
<feBlend mode="normal" in2="effect1_dropShadow_19_554" result="effect2_dropShadow_19_554"/>
<feColorMatrix in="SourceAlpha" type="matrix" values="0 0 0 0 0 0 0 0 0 0 0 0 0 0 0 0 0 0 127 0" result="hardAlpha"/>
<feOffset dx="-8" dy="9"/>
<feGaussianBlur stdDeviation="3.5"/>
<feColorMatrix type="matrix" values="0 0 0 0 0 0 0 0 0 0 0 0 0 0 0 0 0 0 0.05 0"/>
<feBlend mode="normal" in2="effect2_dropShadow_19_554" result="effect3_dropShadow_19_554"/>
<feColorMatrix in="SourceAlpha" type="matrix" values="0 0 0 0 0 0 0 0 0 0 0 0 0 0 0 0 0 0 127 0" result="hardAlpha"/>
<feOffset dx="-15" dy="16"/>
<feGaussianBlur stdDeviation="4.5"/>
<feColorMatrix type="matrix" values="0 0 0 0 0 0 0 0 0 0 0 0 0 0 0 0 0 0 0.01 0"/>
<feBlend mode="normal" in2="effect3_dropShadow_19_554" result="effect4_dropShadow_19_554"/>
<feBlend mode="normal" in="SourceGraphic" in2="effect4_dropShadow_19_554" result="shape"/>
</filter>
</defs>
</svg>
