<svg width="261" height="261" viewBox="0 0 261 261" fill="none" xmlns="http://www.w3.org/2000/svg">
<path d="M54.375 87C72.3932 87 87 72.3932 87 54.375C87 36.3567 72.3932 21.75 54.375 21.75C36.3567 21.75 21.75 36.3567 21.75 54.375C21.75 72.3932 36.3567 87 54.375 87Z" stroke="#F26C1E" stroke-width="9" stroke-linecap="round" stroke-linejoin="round"/>
<path d="M34.1687 79.9907C29.4784 88.9175 25.9926 98.5761 23.9272 108.751" stroke="#035271" stroke-width="9" stroke-linecap="round" stroke-linejoin="round"/>
<path d="M79.9907 34.1658C88.918 29.4755 98.5766 25.9896 108.751 23.9243" stroke="#035271" stroke-width="9" stroke-linecap="round" stroke-linejoin="round"/>
<path d="M206.625 87C224.643 87 239.25 72.3932 239.25 54.375C239.25 36.3567 224.643 21.75 206.625 21.75C188.607 21.75 174 36.3567 174 54.375C174 72.3932 188.607 87 206.625 87Z" stroke="#F26C1E" stroke-width="9" stroke-linecap="round" stroke-linejoin="round"/>
<path d="M181.011 34.1658C172.083 29.4755 162.425 25.9896 152.25 23.9243" stroke="#035271" stroke-width="9" stroke-linecap="round" stroke-linejoin="round"/>
<path d="M226.835 79.9907C231.525 88.9175 235.011 98.5761 237.076 108.751" stroke="#035271" stroke-width="9" stroke-linecap="round" stroke-linejoin="round"/>
<path d="M206.625 239.25C224.643 239.25 239.25 224.643 239.25 206.625C239.25 188.607 224.643 174 206.625 174C188.607 174 174 188.607 174 206.625C174 224.643 188.607 239.25 206.625 239.25Z" stroke="#F26C1E" stroke-width="9" stroke-linecap="round" stroke-linejoin="round"/>
<path d="M226.835 181.011C231.525 172.083 235.011 162.425 237.076 152.25" stroke="#035271" stroke-width="9" stroke-linecap="round" stroke-linejoin="round"/>
<path d="M181.011 226.833C172.083 231.523 162.425 235.009 152.25 237.074" stroke="#035271" stroke-width="9" stroke-linecap="round" stroke-linejoin="round"/>
<path d="M54.375 239.25C72.3932 239.25 87 224.643 87 206.625C87 188.607 72.3932 174 54.375 174C36.3567 174 21.75 188.607 21.75 206.625C21.75 224.643 36.3567 239.25 54.375 239.25Z" stroke="#F26C1E" stroke-width="9" stroke-linecap="round" stroke-linejoin="round"/>
<path d="M79.9907 226.833C88.918 231.523 98.5766 235.009 108.751 237.074" stroke="#035271" stroke-width="9" stroke-linecap="round" stroke-linejoin="round"/>
<path d="M34.1687 181.011C29.4784 172.083 25.9926 162.425 23.9272 152.25" stroke="#035271" stroke-width="9" stroke-linecap="round" stroke-linejoin="round"/>
<path d="M130.5 163.125V97.875M97.875 130.5H163.125" stroke="#035271" stroke-width="9" stroke-linecap="round" stroke-linejoin="round"/>
</svg>
