<svg width="261" height="261" viewBox="0 0 261 261" fill="none" xmlns="http://www.w3.org/2000/svg">
<path d="M217.5 125.062V76.125L168.562 21.75H54.375C48.3689 21.75 43.5 26.6189 43.5 32.625V228.375C43.5 234.381 48.3689 239.25 54.375 239.25H119.625" stroke="#035271" stroke-width="9" stroke-linecap="round" stroke-linejoin="round"/>
<path d="M179.438 222.938C206.465 222.938 228.375 190.312 228.375 190.312C228.375 190.312 206.465 157.688 179.438 157.688C152.41 157.688 130.5 190.312 130.5 190.312C130.5 190.312 152.41 222.938 179.438 222.938Z" stroke="#F26C1E" stroke-width="7" stroke-linejoin="round"/>
<path d="M179.438 201.188C185.444 201.188 190.312 196.319 190.312 190.312C190.312 184.306 185.444 179.438 179.438 179.438C173.431 179.438 168.562 184.306 168.562 190.312C168.562 196.319 173.431 201.188 179.438 201.188Z" fill="white"/>
<path d="M163.125 21.75V76.125H217.5" stroke="#035271" stroke-width="9" stroke-linecap="round" stroke-linejoin="round"/>
</svg>
