<svg width="720" height="581" viewBox="0 0 720 581" fill="none" xmlns="http://www.w3.org/2000/svg">
<g filter="url(#filter0_dddd_493_1731)">
<path d="M594.121 299.97V10L521.551 10V299.97H594.121Z" fill="#0169EE"/>
<path d="M575.391 169.72V34.7H536.431V169.72H575.391Z" fill="white"/>
<path d="M575.381 188.01V175.37H536.421V188.01H575.381Z" fill="#4324FE"/>
<path d="M555.16 263.84C562.716 263.84 568.84 257.715 568.84 250.16C568.84 242.605 562.716 236.48 555.16 236.48C547.605 236.48 541.48 242.605 541.48 250.16C541.48 257.715 547.605 263.84 555.16 263.84Z" stroke="white" stroke-width="6" stroke-linecap="round" stroke-linejoin="round"/>
<path d="M570.93 66.81H541.98" stroke="#4324FE" stroke-width="6" stroke-linecap="round" stroke-linejoin="round"/>
<path d="M570.93 81.68H541.98" stroke="#4324FE" stroke-width="6" stroke-linecap="round" stroke-linejoin="round"/>
<path d="M570.93 96.55H541.98" stroke="#4324FE" stroke-width="6" stroke-linecap="round" stroke-linejoin="round"/>
<path d="M668.391 300.27V10.2998L595.821 10.2998V300.27H668.391Z" fill="#0169EE"/>
<path d="M649.66 170.01V34.9898H610.7V170.01H649.66Z" fill="white"/>
<path d="M649.66 188.31V175.67H610.7V188.31H649.66Z" fill="#182F6A"/>
<path d="M629.43 264.14C636.985 264.14 643.11 258.015 643.11 250.46C643.11 242.905 636.985 236.78 629.43 236.78C621.875 236.78 615.75 242.905 615.75 250.46C615.75 258.015 621.875 264.14 629.43 264.14Z" stroke="white" stroke-width="6" stroke-linecap="round" stroke-linejoin="round"/>
<path d="M644.751 128.97H615.801" stroke="#182F6A" stroke-width="6" stroke-linecap="round" stroke-linejoin="round"/>
<path d="M644.751 52.2398H615.801" stroke="#182F6A" stroke-width="6" stroke-linecap="round" stroke-linejoin="round"/>
<path d="M644.751 143.84H615.801" stroke="#182F6A" stroke-width="6" stroke-linecap="round" stroke-linejoin="round"/>
<path d="M644.751 158.71H615.801" stroke="#182F6A" stroke-width="6" stroke-linecap="round" stroke-linejoin="round"/>
<path d="M520.57 300.27V10.3L448 10.3V300.27H520.57Z" fill="#0169EE"/>
<path d="M501.84 170.01V34.99H462.88V170.01H501.84Z" fill="white"/>
<path d="M501.84 188.3V175.66H462.88V188.3H501.84Z" fill="#4324FE"/>
<path d="M481.61 264.14C489.165 264.14 495.29 258.015 495.29 250.46C495.29 242.905 489.165 236.78 481.61 236.78C474.054 236.78 467.93 242.905 467.93 250.46C467.93 258.015 474.054 264.14 481.61 264.14Z" stroke="white" stroke-width="6" stroke-linecap="round" stroke-linejoin="round"/>
<path d="M496.93 128.97H467.98" stroke="#182F6A" stroke-width="6" stroke-linecap="round" stroke-linejoin="round"/>
<path d="M496.93 52.24H467.98" stroke="#182F6A" stroke-width="6" stroke-linecap="round" stroke-linejoin="round"/>
<path d="M496.93 143.84H467.98" stroke="#182F6A" stroke-width="6" stroke-linecap="round" stroke-linejoin="round"/>
<path d="M496.93 158.71H467.98" stroke="#182F6A" stroke-width="6" stroke-linecap="round" stroke-linejoin="round"/>
</g>
<g filter="url(#filter1_dddd_493_1731)">
<path d="M268 116.289C272.494 118.252 283.476 118.007 283.492 118.007C283.507 118.007 281.13 110.813 280.915 110.338C278.507 105.292 270.884 96.9631 264.687 97.8067C263.661 97.9735 262.682 98.3548 261.813 98.9257C260.944 99.4967 260.206 100.244 259.646 101.12C259.085 101.996 258.716 102.98 258.562 104.008C258.408 105.036 258.472 106.085 258.751 107.086C259.779 111.427 264.181 114.617 268 116.289Z" fill="#F26C1E"/>
<path d="M271.803 148.115C276.404 148.79 286.251 145.952 287.033 145.722C288.653 151.328 290.641 156.821 292.984 162.165C294.334 165.232 295.791 168.392 297.279 171.49C296.39 170.171 295.577 169.005 295.454 168.867C291.788 164.634 282.248 158.621 276.481 161.06C275.537 161.495 274.695 162.123 274.01 162.904C273.324 163.684 272.81 164.6 272.501 165.592C272.191 166.583 272.094 167.629 272.214 168.661C272.334 169.693 272.669 170.688 273.198 171.582C275.33 175.463 280.423 177.365 284.549 177.978C288.674 178.592 297.156 176.322 299.365 175.708C299.963 176.889 300.531 178.07 301.129 179.251C303.967 184.896 306.819 190.525 309.458 196.123C310.378 198.086 311.222 200.065 312.08 202.044C311.283 200.878 310.547 199.912 310.547 199.774C306.881 195.556 297.341 189.528 291.573 191.982C290.628 192.415 289.785 193.042 289.098 193.822C288.411 194.602 287.896 195.519 287.586 196.511C287.277 197.503 287.179 198.55 287.301 199.582C287.422 200.615 287.76 201.61 288.291 202.504C290.423 206.369 295.515 208.286 299.641 208.884C303.767 209.483 311.421 207.458 314.059 206.722C314.872 208.777 315.685 210.832 316.375 212.857C316.82 214.253 317.341 215.557 317.71 216.983C318.078 218.409 318.476 219.775 318.86 221.14C319.504 223.824 320.179 226.569 320.747 229.192C321.145 231.017 321.498 232.766 321.866 234.515C320.961 232.551 319.105 228.717 318.921 228.379C315.946 223.64 307.418 216.247 301.359 217.796C300.358 218.08 299.428 218.571 298.629 219.238C297.83 219.906 297.181 220.734 296.724 221.668C296.267 222.603 296.012 223.624 295.975 224.664C295.939 225.704 296.122 226.74 296.512 227.704C298.046 231.846 302.786 234.514 306.773 235.742C311.16 237.076 320.9 235.849 322.112 235.742C322.694 238.64 323.231 241.478 323.645 244.162C324.688 250.083 325.486 255.374 326.084 259.868H330.179C329.474 255.267 328.538 249.684 327.296 243.472C326.713 240.527 326.038 237.337 325.317 234.146C328.245 232.973 331.103 231.632 333.876 230.128C337.066 233.594 345.272 237.659 346.346 238.18C345.226 240.926 344.106 243.579 343.017 246.079C340.747 251.294 338.6 255.927 336.698 259.884H341.131C342.757 256.249 344.567 252.123 346.438 247.537C347.588 244.745 348.754 241.754 349.92 238.656C351.101 238.901 360.733 240.864 365.258 239.852C369.322 238.932 374.261 236.631 375.994 232.597C376.457 231.666 376.717 230.648 376.76 229.61C376.802 228.572 376.625 227.536 376.24 226.571C375.855 225.605 375.271 224.732 374.525 224.007C373.78 223.283 372.89 222.724 371.914 222.367C365.979 220.373 356.929 227.106 353.601 231.57C353.417 231.846 351.607 234.959 350.533 236.938C351.009 235.68 351.484 234.453 351.944 233.149C352.895 230.557 353.769 227.965 354.705 225.158C355.124 223.798 355.538 222.418 355.947 221.017C356.392 219.652 356.684 218.133 357.067 216.692C357.865 213.302 358.524 209.82 359.107 206.323C361.362 207.136 369.445 209.943 373.617 209.651C377.789 209.36 383.004 207.826 385.412 204.13C386.009 203.278 386.419 202.311 386.618 201.291C386.816 200.271 386.797 199.22 386.563 198.207C386.329 197.195 385.884 196.243 385.257 195.413C384.631 194.584 383.837 193.896 382.927 193.393C377.375 190.525 367.39 195.816 363.433 199.758C363.187 200.004 360.672 203.148 359.307 204.897C359.644 202.795 359.981 200.679 360.258 198.531C361.024 192.319 361.607 186.015 362.221 179.742C362.405 177.809 362.62 175.892 362.819 173.975C363.617 174.282 373.142 177.825 377.835 177.487C381.992 177.196 387.222 175.662 389.63 171.966C390.227 171.114 390.637 170.147 390.836 169.127C391.034 168.107 391.015 167.056 390.781 166.043C390.547 165.031 390.102 164.079 389.475 163.249C388.849 162.42 388.055 161.732 387.145 161.229C381.577 158.361 371.608 163.652 367.65 167.594C367.344 167.886 363.724 172.426 362.85 173.622C363.31 169.389 363.785 165.186 364.383 161.06C365.233 155.478 366.437 149.955 367.988 144.526C368.371 144.664 378.295 148.422 383.096 148.084C387.253 147.793 392.483 146.259 394.891 142.562C395.489 141.711 395.901 140.743 396.1 139.722C396.298 138.7 396.279 137.648 396.043 136.635C395.807 135.621 395.36 134.669 394.73 133.84C394.101 133.012 393.304 132.325 392.391 131.826C386.839 128.958 376.869 134.234 372.896 138.176C372.589 138.482 368.693 143.375 368.049 144.311C368.141 143.989 368.203 143.651 368.295 143.345C370.013 137.947 372.204 132.712 374.844 127.7C376.271 124.924 377.789 122.331 379.323 119.862C381.102 120.752 389.262 124.709 393.618 124.878C397.974 125.046 403.143 124.111 405.888 120.69C406.575 119.909 407.09 118.991 407.399 117.998C407.707 117.004 407.803 115.957 407.68 114.924C407.557 113.89 407.218 112.895 406.685 112.001C406.151 111.108 405.436 110.337 404.585 109.739C399.37 106.288 388.878 110.444 384.522 113.926C384.277 114.11 382.084 116.304 380.489 117.929C381.209 116.825 381.915 115.659 382.605 114.616C385.228 110.674 387.866 107.223 390.274 104.186C391.639 102.469 392.897 100.95 394.093 99.585C396.287 99.585 405.152 99.2782 409.017 97.453C412.883 95.6278 417.116 92.3761 418.036 88.0507C418.285 87.0462 418.32 86.0007 418.14 84.9817C417.959 83.9628 417.567 82.9928 416.989 82.1345C416.411 81.2762 415.66 80.5484 414.784 79.9982C413.907 79.448 412.925 79.0874 411.901 78.9399C405.674 78.265 398.281 86.793 396.011 91.9006C395.811 92.3301 393.541 99.5697 393.649 99.5697H393.787C392.606 100.904 391.363 102.361 390.029 103.972C387.59 106.947 384.875 110.352 382.16 114.248C379.189 118.421 376.465 122.764 374 127.255C371.212 132.267 368.876 137.518 367.022 142.946C367.028 143.012 367.028 143.079 367.022 143.145C367.022 141.32 367.022 136.182 366.93 135.798C366.209 130.246 361.561 119.969 355.411 118.819C354.384 118.652 353.333 118.702 352.327 118.968C351.321 119.234 350.383 119.708 349.572 120.361C348.762 121.014 348.098 121.83 347.624 122.756C347.15 123.682 346.877 124.698 346.821 125.737C346.469 130.139 349.659 134.541 352.773 137.317C356.285 140.461 366.025 143.452 366.807 143.728C365.051 149.299 363.672 154.982 362.681 160.738C362.083 164.082 361.592 167.472 361.147 170.877C361.147 169.343 361.147 167.809 361.147 167.671C360.426 162.134 355.779 151.842 349.628 150.707C348.601 150.547 347.552 150.604 346.548 150.876C345.545 151.147 344.61 151.627 343.804 152.284C342.998 152.941 342.34 153.76 341.871 154.688C341.403 155.616 341.135 156.632 341.085 157.671C340.717 162.073 343.922 166.49 347.021 169.266C350.119 172.042 358.448 174.849 360.641 175.539C360.472 176.858 360.304 178.162 360.15 179.466C359.399 185.755 358.616 192.013 357.773 198.148C357.466 200.31 357.067 202.427 356.684 204.544C356.684 203.133 356.684 201.952 356.607 201.768C355.901 196.231 351.254 185.939 345.103 184.804C344.076 184.643 343.027 184.701 342.024 184.972C341.02 185.244 340.085 185.724 339.279 186.381C338.474 187.038 337.815 187.857 337.346 188.785C336.878 189.713 336.61 190.729 336.56 191.767C336.192 196.169 339.382 200.571 342.496 203.363C345.61 206.154 353.11 208.654 355.717 209.498C355.257 211.661 354.812 213.823 354.26 215.894C353.862 217.305 353.57 218.686 353.095 220.066L351.776 224.177C350.825 226.769 349.874 229.438 348.892 231.938C348.232 233.686 347.558 235.327 346.883 236.984C347.22 234.837 347.803 230.634 347.803 230.266C347.739 225.35 346.413 220.534 343.953 216.277C343.937 215.746 343.87 215.217 343.754 214.698C343.625 213.667 343.28 212.675 342.741 211.786C342.203 210.897 341.484 210.132 340.63 209.54C339.776 208.948 338.807 208.543 337.786 208.351C336.765 208.158 335.715 208.184 334.704 208.424C328.661 210.035 324.811 220.695 324.535 226.232C324.535 226.554 324.734 230.143 324.903 232.367C324.596 231.048 324.32 229.775 323.983 228.425C323.354 225.741 322.648 223.103 321.882 220.235C321.483 218.87 321.053 217.489 320.639 216.109C320.225 214.728 319.657 213.287 319.182 211.875C317.986 208.608 316.605 205.341 315.148 202.09C317.495 201.538 325.777 199.421 329.106 196.875C332.434 194.329 335.931 190.172 335.901 185.755C335.93 184.715 335.74 183.68 335.342 182.718C334.944 181.757 334.348 180.89 333.592 180.175C332.836 179.46 331.938 178.912 330.956 178.568C329.974 178.224 328.931 178.091 327.894 178.178C321.682 178.852 316.283 188.761 315.148 194.237C315.071 194.574 314.703 198.593 314.55 200.801C313.66 198.853 312.786 196.905 311.82 194.973C309.044 189.374 306.053 183.791 303.092 178.208L300.408 173.07C301.252 172.886 311.145 170.585 314.872 167.717C318.185 165.186 321.697 161.03 321.667 156.612C321.694 155.572 321.502 154.538 321.103 153.577C320.705 152.616 320.109 151.749 319.354 151.034C318.599 150.318 317.702 149.768 316.721 149.422C315.74 149.075 314.697 148.938 313.66 149.02C307.448 149.695 302.049 159.618 300.914 165.094C300.838 165.493 300.316 171.229 300.255 172.763C298.291 168.99 296.374 165.202 294.626 161.413C292.257 156.305 290.223 151.048 288.536 145.676C288.935 145.584 299.273 143.237 303.092 140.308C306.405 137.777 309.918 133.62 309.872 129.203C309.901 128.164 309.711 127.13 309.314 126.169C308.917 125.208 308.323 124.341 307.569 123.625C306.815 122.909 305.919 122.359 304.939 122.012C303.959 121.665 302.917 121.528 301.881 121.611C295.653 122.285 290.254 132.209 289.135 137.67C289.043 138.099 288.49 144.326 288.46 145.461C288.368 145.155 288.23 144.832 288.138 144.526C286.587 139.079 285.53 133.504 284.978 127.869C284.625 124.801 284.472 121.733 284.38 118.85C286.343 118.62 295.347 117.423 299.074 115.153C302.801 112.883 306.589 109.248 307.034 104.861C307.177 103.831 307.101 102.782 306.811 101.784C306.522 100.785 306.025 99.8579 305.354 99.0636C304.683 98.2693 303.852 97.6252 302.915 97.1733C301.978 96.7214 300.957 96.4718 299.917 96.4407C293.659 96.4407 287.217 105.644 285.484 111.012C285.392 111.288 284.763 114.34 284.334 116.564C284.334 115.245 284.334 113.895 284.334 112.638C284.334 107.898 284.641 103.558 284.947 99.7231C285.131 97.5451 285.346 95.5818 285.561 93.7412C287.371 92.4988 294.61 87.3912 296.834 83.7407C299.058 80.0902 300.792 75.0287 299.166 70.9181C298.815 69.9397 298.263 69.0459 297.544 68.2945C296.826 67.5431 295.958 66.9509 294.997 66.5561C294.036 66.1614 293.002 65.973 291.963 66.0031C290.924 66.0332 289.903 66.2811 288.966 66.7307C283.413 69.599 281.941 80.7958 282.831 86.3175C282.923 86.793 285.009 94.0939 285.116 93.9866L285.223 93.9099C284.978 95.6738 284.733 97.5757 284.518 99.6463C284.134 103.481 283.736 107.822 283.628 112.576C283.452 117.692 283.575 122.813 283.996 127.915C284.433 133.612 285.383 139.259 286.834 144.786V144.986C285.852 143.452 282.953 139.203 282.693 138.851C279.042 134.617 269.486 128.605 263.719 131.043C262.775 131.478 261.934 132.106 261.248 132.887C260.563 133.668 260.05 134.584 259.741 135.577C259.433 136.569 259.337 137.615 259.46 138.647C259.582 139.678 259.92 140.673 260.452 141.565C262.569 145.676 267.661 147.501 271.803 148.115Z" fill="#F26C1E"/>
<path d="M379.112 118.713C379.219 118.713 381.121 111.412 381.182 110.937C381.949 105.4 380.185 94.2487 374.556 91.5185C373.608 91.0929 372.58 90.8716 371.541 90.869C370.501 90.8665 369.473 91.0827 368.523 91.5037C367.572 91.9246 366.721 92.5409 366.024 93.3125C365.328 94.084 364.801 94.9935 364.479 95.9819C362.945 100.139 364.878 105.185 367.148 108.743C369.832 112.854 379.112 118.698 379.112 118.713Z" fill="#F26C1E"/>
<path d="M512 284H80V300H512V284Z" fill="#0169EE"/>
<path d="M441.705 256.112H340.842C338.718 256.11 336.614 256.527 334.651 257.338C332.687 258.15 330.903 259.34 329.401 260.841C327.898 262.343 326.706 264.126 325.892 266.088C325.079 268.051 324.66 270.154 324.66 272.278V274.058C324.66 278.349 326.365 282.465 329.4 285.5C332.434 288.534 336.55 290.239 340.842 290.239H441.705C438.443 285.053 436.587 279.106 436.322 272.984C436.536 266.973 438.398 261.136 441.705 256.112Z" fill="white" stroke="#263238" stroke-width="3.66978" stroke-linecap="round" stroke-linejoin="round"/>
<path d="M393.817 256.112H292.953C288.664 256.112 284.551 257.815 281.516 260.846C278.482 263.877 276.776 267.989 276.771 272.278V274.058C276.771 278.349 278.476 282.465 281.511 285.5C284.546 288.534 288.662 290.239 292.953 290.239H393.817C390.554 285.053 388.699 279.106 388.433 272.984C388.647 266.973 390.509 261.136 393.817 256.112Z" fill="white" stroke="#263238" stroke-width="3.66978" stroke-linecap="round" stroke-linejoin="round"/>
<path d="M276.771 272.309V274.088C276.774 277.171 277.658 280.189 279.318 282.787C280.979 285.384 283.346 287.454 286.143 288.751L288.352 288.843V258.627L287.048 257.262C284.022 258.448 281.424 260.518 279.591 263.202C277.758 265.885 276.775 269.059 276.771 272.309Z" fill="white" stroke="#263238" stroke-width="3.66978" stroke-linecap="round" stroke-linejoin="round"/>
<path d="M441.702 256.112H292.922C288.633 256.112 284.519 257.815 281.485 260.846C278.451 263.877 276.744 267.989 276.74 272.278V274.058C276.74 278.349 278.445 282.465 281.48 285.5C284.514 288.534 288.63 290.239 292.922 290.239H441.702" stroke="#263238" stroke-width="11.0093" stroke-linecap="round" stroke-linejoin="round"/>
<path d="M288.861 263.658H338.204" stroke="#263238" stroke-width="3.66978" stroke-linecap="round" stroke-linejoin="round"/>
<path d="M345.26 268.198H352.806" stroke="#263238" stroke-width="3.66978" stroke-linecap="round" stroke-linejoin="round"/>
<path d="M298.43 268.198H338.708" stroke="#263238" stroke-width="3.66978" stroke-linecap="round" stroke-linejoin="round"/>
<path d="M288.861 278.259H314.031" stroke="#263238" stroke-width="3.66978" stroke-linecap="round" stroke-linejoin="round"/>
<path d="M364.318 283.802H369.855" stroke="#263238" stroke-width="3.66978" stroke-linecap="round" stroke-linejoin="round"/>
<path d="M329.137 283.797H359.859" stroke="#263238" stroke-width="3.66978" stroke-linecap="round" stroke-linejoin="round"/>
<path d="M298.43 283.797H320.072" stroke="#263238" stroke-width="3.66978" stroke-linecap="round" stroke-linejoin="round"/>
<path d="M341.838 256.112H200.559C198.434 256.11 196.331 256.527 194.367 257.338C192.404 258.15 190.62 259.34 189.117 260.841C187.615 262.343 186.422 264.126 185.609 266.088C184.796 268.051 184.377 270.154 184.377 272.278V274.058C184.377 278.349 186.082 282.465 189.116 285.5C192.151 288.534 196.267 290.239 200.559 290.239H341.838C338.575 285.053 336.72 279.106 336.454 272.984C336.669 266.973 338.531 261.136 341.838 256.112Z" fill="white" stroke="#263238" stroke-width="3.66978" stroke-linecap="round" stroke-linejoin="round"/>
<path d="M255.914 261.51V285.928" stroke="#263238" stroke-width="3.66978" stroke-linecap="round" stroke-linejoin="round"/>
<path d="M256.682 265.33H297.144" stroke="#263238" stroke-width="3.66978" stroke-linecap="round" stroke-linejoin="round"/>
<path d="M256.682 271.434H312.405" stroke="#263238" stroke-width="3.66978" stroke-linecap="round" stroke-linejoin="round"/>
<path d="M273.859 278.306H288.354" stroke="#263238" stroke-width="3.66978" stroke-linecap="round" stroke-linejoin="round"/>
<path d="M306.684 282.876H263.17" stroke="#263238" stroke-width="3.66978" stroke-linecap="round" stroke-linejoin="round"/>
<path d="M248.875 274.088V272.309C248.873 270.183 249.29 268.077 250.103 266.112C250.915 264.147 252.106 262.361 253.609 260.857C255.112 259.353 256.897 258.159 258.861 257.345C260.825 256.531 262.931 256.112 265.057 256.112H200.637C198.513 256.11 196.409 256.527 194.445 257.338C192.482 258.15 190.698 259.34 189.196 260.841C187.693 262.343 186.501 264.126 185.687 266.088C184.874 268.051 184.455 270.154 184.455 272.278V274.058C184.455 278.349 186.16 282.465 189.195 285.5C192.229 288.534 196.345 290.239 200.637 290.239H265.134C263.005 290.249 260.895 289.839 258.925 289.032C256.955 288.226 255.163 287.038 253.653 285.538C252.142 284.037 250.943 282.254 250.123 280.289C249.303 278.324 248.879 276.217 248.875 274.088Z" fill="#263238" stroke="#263238" stroke-width="3.66978" stroke-linecap="round" stroke-linejoin="round"/>
<path d="M334.415 256.112H200.559C198.434 256.11 196.331 256.527 194.367 257.338C192.404 258.15 190.62 259.34 189.117 260.841C187.615 262.343 186.422 264.126 185.609 266.088C184.796 268.051 184.377 270.154 184.377 272.278V274.058C184.377 278.349 186.082 282.465 189.116 285.5C192.151 288.534 196.267 290.239 200.559 290.239H334.415" stroke="#263238" stroke-width="11.0093" stroke-linecap="round" stroke-linejoin="round"/>
<path d="M344.845 256.112H265.44C261.151 256.112 257.037 257.815 254.003 260.846C250.969 263.877 249.262 267.989 249.258 272.278V274.058C249.258 278.349 250.963 282.465 253.997 285.5C257.032 288.534 261.148 290.239 265.44 290.239H344.845" stroke="#263238" stroke-width="11.0093" stroke-linecap="round" stroke-linejoin="round"/>
<path d="M425.66 222.536H324.797C320.508 222.536 316.394 224.238 313.36 227.27C310.326 230.301 308.619 234.413 308.615 238.702V240.481C308.615 244.773 310.32 248.889 313.355 251.924C316.389 254.958 320.505 256.663 324.797 256.663H425.66C422.393 251.467 420.537 245.509 420.277 239.377C420.496 233.376 422.359 227.551 425.66 222.536Z" fill="white" stroke="#263238" stroke-width="3.66978" stroke-linecap="round" stroke-linejoin="round"/>
<path d="M377.789 222.536H276.926C274.802 222.534 272.698 222.95 270.735 223.762C268.771 224.573 266.987 225.764 265.485 227.265C263.982 228.767 262.79 230.55 261.976 232.512C261.163 234.474 260.744 236.578 260.744 238.702V240.481C260.744 244.773 262.449 248.889 265.484 251.924C268.518 254.958 272.634 256.663 276.926 256.663H377.789C374.516 251.469 372.655 245.511 372.39 239.377C372.611 233.374 374.479 227.548 377.789 222.536Z" fill="white" stroke="#263238" stroke-width="3.66978" stroke-linecap="round" stroke-linejoin="round"/>
<path d="M260.744 238.703V240.482C260.744 243.564 261.624 246.581 263.282 249.179C264.94 251.777 267.305 253.847 270.1 255.145L272.324 255.237V225.021L271.005 223.656C267.982 224.845 265.387 226.915 263.557 229.599C261.727 232.282 260.747 235.455 260.744 238.703Z" fill="white" stroke="#263238" stroke-width="3.66978" stroke-linecap="round" stroke-linejoin="round"/>
<path d="M425.657 222.536H276.877C274.753 222.534 272.649 222.95 270.686 223.762C268.723 224.573 266.939 225.764 265.436 227.265C263.933 228.767 262.741 230.55 261.927 232.512C261.114 234.474 260.695 236.578 260.695 238.702V240.481C260.695 244.773 262.4 248.889 265.435 251.924C268.469 254.958 272.585 256.663 276.877 256.663H425.657" stroke="#263238" stroke-width="11.0093" stroke-linecap="round" stroke-linejoin="round"/>
<path d="M272.816 230.052H322.159" stroke="#263238" stroke-width="3.66978" stroke-linecap="round" stroke-linejoin="round"/>
<path d="M329.215 234.592H336.761" stroke="#263238" stroke-width="3.66978" stroke-linecap="round" stroke-linejoin="round"/>
<path d="M282.385 234.592H322.663" stroke="#263238" stroke-width="3.66978" stroke-linecap="round" stroke-linejoin="round"/>
<path d="M272.816 244.653H298.002" stroke="#263238" stroke-width="3.66978" stroke-linecap="round" stroke-linejoin="round"/>
<path d="M348.34 250.191H353.877" stroke="#263238" stroke-width="3.66978" stroke-linecap="round" stroke-linejoin="round"/>
<path d="M313.109 250.191H343.816" stroke="#263238" stroke-width="3.66978" stroke-linecap="round" stroke-linejoin="round"/>
<path d="M282.385 250.191H304.042" stroke="#263238" stroke-width="3.66978" stroke-linecap="round" stroke-linejoin="round"/>
</g>
<defs>
<filter id="filter0_dddd_493_1731" x="397" y="0" width="322.391" height="479.27" filterUnits="userSpaceOnUse" color-interpolation-filters="sRGB">
<feFlood flood-opacity="0" result="BackgroundImageFix"/>
<feColorMatrix in="SourceAlpha" type="matrix" values="0 0 0 0 0 0 0 0 0 0 0 0 0 0 0 0 0 0 127 0" result="hardAlpha"/>
<feOffset dy="8"/>
<feGaussianBlur stdDeviation="9"/>
<feColorMatrix type="matrix" values="0 0 0 0 0 0 0 0 0 0 0 0 0 0 0 0 0 0 0.1 0"/>
<feBlend mode="normal" in2="BackgroundImageFix" result="effect1_dropShadow_493_1731"/>
<feColorMatrix in="SourceAlpha" type="matrix" values="0 0 0 0 0 0 0 0 0 0 0 0 0 0 0 0 0 0 127 0" result="hardAlpha"/>
<feOffset dy="32"/>
<feGaussianBlur stdDeviation="16"/>
<feColorMatrix type="matrix" values="0 0 0 0 0 0 0 0 0 0 0 0 0 0 0 0 0 0 0.09 0"/>
<feBlend mode="normal" in2="effect1_dropShadow_493_1731" result="effect2_dropShadow_493_1731"/>
<feColorMatrix in="SourceAlpha" type="matrix" values="0 0 0 0 0 0 0 0 0 0 0 0 0 0 0 0 0 0 127 0" result="hardAlpha"/>
<feOffset dy="72"/>
<feGaussianBlur stdDeviation="21.5"/>
<feColorMatrix type="matrix" values="0 0 0 0 0 0 0 0 0 0 0 0 0 0 0 0 0 0 0.05 0"/>
<feBlend mode="normal" in2="effect2_dropShadow_493_1731" result="effect3_dropShadow_493_1731"/>
<feColorMatrix in="SourceAlpha" type="matrix" values="0 0 0 0 0 0 0 0 0 0 0 0 0 0 0 0 0 0 127 0" result="hardAlpha"/>
<feOffset dy="128"/>
<feGaussianBlur stdDeviation="25.5"/>
<feColorMatrix type="matrix" values="0 0 0 0 0 0 0 0 0 0 0 0 0 0 0 0 0 0 0.01 0"/>
<feBlend mode="normal" in2="effect3_dropShadow_493_1731" result="effect4_dropShadow_493_1731"/>
<feBlend mode="normal" in="SourceGraphic" in2="effect4_dropShadow_493_1731" result="shape"/>
</filter>
<filter id="filter1_dddd_493_1731" x="0" y="51" width="592" height="530" filterUnits="userSpaceOnUse" color-interpolation-filters="sRGB">
<feFlood flood-opacity="0" result="BackgroundImageFix"/>
<feColorMatrix in="SourceAlpha" type="matrix" values="0 0 0 0 0 0 0 0 0 0 0 0 0 0 0 0 0 0 127 0" result="hardAlpha"/>
<feOffset dy="13"/>
<feGaussianBlur stdDeviation="14"/>
<feColorMatrix type="matrix" values="0 0 0 0 0 0 0 0 0 0 0 0 0 0 0 0 0 0 0.1 0"/>
<feBlend mode="normal" in2="BackgroundImageFix" result="effect1_dropShadow_493_1731"/>
<feColorMatrix in="SourceAlpha" type="matrix" values="0 0 0 0 0 0 0 0 0 0 0 0 0 0 0 0 0 0 127 0" result="hardAlpha"/>
<feOffset dy="50"/>
<feGaussianBlur stdDeviation="25"/>
<feColorMatrix type="matrix" values="0 0 0 0 0 0 0 0 0 0 0 0 0 0 0 0 0 0 0.09 0"/>
<feBlend mode="normal" in2="effect1_dropShadow_493_1731" result="effect2_dropShadow_493_1731"/>
<feColorMatrix in="SourceAlpha" type="matrix" values="0 0 0 0 0 0 0 0 0 0 0 0 0 0 0 0 0 0 127 0" result="hardAlpha"/>
<feOffset dy="113"/>
<feGaussianBlur stdDeviation="34"/>
<feColorMatrix type="matrix" values="0 0 0 0 0 0 0 0 0 0 0 0 0 0 0 0 0 0 0.05 0"/>
<feBlend mode="normal" in2="effect2_dropShadow_493_1731" result="effect3_dropShadow_493_1731"/>
<feColorMatrix in="SourceAlpha" type="matrix" values="0 0 0 0 0 0 0 0 0 0 0 0 0 0 0 0 0 0 127 0" result="hardAlpha"/>
<feOffset dy="201"/>
<feGaussianBlur stdDeviation="40"/>
<feColorMatrix type="matrix" values="0 0 0 0 0 0 0 0 0 0 0 0 0 0 0 0 0 0 0.01 0"/>
<feBlend mode="normal" in2="effect3_dropShadow_493_1731" result="effect4_dropShadow_493_1731"/>
<feBlend mode="normal" in="SourceGraphic" in2="effect4_dropShadow_493_1731" result="shape"/>
</filter>
</defs>
</svg>
