<svg width="140" height="175" viewBox="0 0 140 175" fill="none" xmlns="http://www.w3.org/2000/svg">
<g filter="url(#filter0_dddd_434_1634)">
<path d="M56 55.8534V23.3333C56 15.6013 62.268 9.33331 70 9.33331C77.732 9.33331 84 15.6013 84 23.3333V28.0133" stroke="#F26C1E" stroke-width="5" stroke-linecap="round"/>
<path d="M84 56.0079V88.6664C84 96.3984 77.732 102.666 70 102.666C62.268 102.666 56 96.3984 56 88.6664V83.9298" stroke="#F26C1E" stroke-width="5" stroke-linecap="round"/>
<path d="M70.0002 70H37.2965C29.5849 70 23.3335 63.732 23.3335 56C23.3335 48.268 29.5849 42 37.2965 42H41.9736" stroke="#035271" stroke-width="5" stroke-linecap="round"/>
<path d="M70 42H102.641C110.387 42 116.667 48.268 116.667 56C116.667 63.732 110.387 70 102.641 70H98.1547" stroke="#035271" stroke-width="5" stroke-linecap="round"/>
</g>
<defs>
<filter id="filter0_dddd_434_1634" x="-6" y="-4" width="152" height="185" filterUnits="userSpaceOnUse" color-interpolation-filters="sRGB">
<feFlood flood-opacity="0" result="BackgroundImageFix"/>
<feColorMatrix in="SourceAlpha" type="matrix" values="0 0 0 0 0 0 0 0 0 0 0 0 0 0 0 0 0 0 127 0" result="hardAlpha"/>
<feOffset dy="3"/>
<feGaussianBlur stdDeviation="3.5"/>
<feColorMatrix type="matrix" values="0 0 0 0 0 0 0 0 0 0 0 0 0 0 0 0 0 0 0.1 0"/>
<feBlend mode="normal" in2="BackgroundImageFix" result="effect1_dropShadow_434_1634"/>
<feColorMatrix in="SourceAlpha" type="matrix" values="0 0 0 0 0 0 0 0 0 0 0 0 0 0 0 0 0 0 127 0" result="hardAlpha"/>
<feOffset dy="12"/>
<feGaussianBlur stdDeviation="6"/>
<feColorMatrix type="matrix" values="0 0 0 0 0 0 0 0 0 0 0 0 0 0 0 0 0 0 0.09 0"/>
<feBlend mode="normal" in2="effect1_dropShadow_434_1634" result="effect2_dropShadow_434_1634"/>
<feColorMatrix in="SourceAlpha" type="matrix" values="0 0 0 0 0 0 0 0 0 0 0 0 0 0 0 0 0 0 127 0" result="hardAlpha"/>
<feOffset dy="28"/>
<feGaussianBlur stdDeviation="8.5"/>
<feColorMatrix type="matrix" values="0 0 0 0 0 0 0 0 0 0 0 0 0 0 0 0 0 0 0.05 0"/>
<feBlend mode="normal" in2="effect2_dropShadow_434_1634" result="effect3_dropShadow_434_1634"/>
<feColorMatrix in="SourceAlpha" type="matrix" values="0 0 0 0 0 0 0 0 0 0 0 0 0 0 0 0 0 0 127 0" result="hardAlpha"/>
<feOffset dy="49"/>
<feGaussianBlur stdDeviation="10"/>
<feColorMatrix type="matrix" values="0 0 0 0 0 0 0 0 0 0 0 0 0 0 0 0 0 0 0.01 0"/>
<feBlend mode="normal" in2="effect3_dropShadow_434_1634" result="effect4_dropShadow_434_1634"/>
<feBlend mode="normal" in="SourceGraphic" in2="effect4_dropShadow_434_1634" result="shape"/>
</filter>
</defs>
</svg>
