<svg width="500" height="489" viewBox="0 0 500 489" fill="none" xmlns="http://www.w3.org/2000/svg">
<g clip-path="url(#clip0_125_1542)">
<path fill-rule="evenodd" clip-rule="evenodd" d="M296.479 111.182C366.337 112.149 444.028 130.668 465.712 198.679C487.461 266.892 435.963 329.515 379.751 372.359C320.748 417.329 245.796 454.406 184.2 413.241C114.466 366.638 82.934 273.486 112.557 193.792C138.887 122.958 222.473 110.158 296.479 111.182Z" fill="#FFE4D4"/>
<path fill-rule="evenodd" clip-rule="evenodd" d="M371.965 193.222C414.444 248.69 447.983 321.174 407.985 380.301C367.869 439.602 286.808 437.913 218.366 420.279C146.525 401.77 71.0129 365.846 65.2218 291.989C58.6656 208.372 112.315 125.95 193.245 99.8922C265.177 76.7311 326.965 134.461 371.965 193.222Z" fill="#FFF0E8"/>
<g filter="url(#filter0_dddd_125_1542)">
<path d="M285.5 94H150.5C146.358 94 143 97.3579 143 101.5V221.5C143 225.642 146.358 229 150.5 229H285.5C289.642 229 293 225.642 293 221.5V101.5C293 97.3579 289.642 94 285.5 94Z" stroke="#F26C1E" stroke-width="10" stroke-linecap="round" stroke-linejoin="round"/>
<path d="M143 139H293" stroke="#F26C1E" stroke-width="10" stroke-linecap="round" stroke-linejoin="round"/>
<path d="M143 184H293" stroke="#F26C1E" stroke-width="10" stroke-linecap="round" stroke-linejoin="round"/>
<path d="M191.75 79V109" stroke="#F26C1E" stroke-width="10" stroke-linecap="round" stroke-linejoin="round"/>
<path d="M244.25 79V109" stroke="#F26C1E" stroke-width="10" stroke-linecap="round" stroke-linejoin="round"/>
<path d="M191.75 139V229" stroke="#F26C1E" stroke-width="10" stroke-linecap="round" stroke-linejoin="round"/>
<path d="M244.25 139V229" stroke="#F26C1E" stroke-width="10" stroke-linecap="round" stroke-linejoin="round"/>
<path d="M293 112.75V210.25" stroke="#F26C1E" stroke-width="10" stroke-linecap="round" stroke-linejoin="round"/>
<path d="M143 112.75V210.25" stroke="#F26C1E" stroke-width="10" stroke-linecap="round" stroke-linejoin="round"/>
<path d="M180.5 229H255.5" stroke="#F26C1E" stroke-width="10" stroke-linecap="round" stroke-linejoin="round"/>
</g>
<g filter="url(#filter1_dddd_125_1542)">
<path d="M439.75 347.5C439.75 395.135 401.135 433.75 353.5 433.75C327.739 433.75 267.25 433.75 267.25 433.75C267.25 433.75 267.25 369.374 267.25 347.5C267.25 299.865 305.865 261.25 353.5 261.25C401.135 261.25 439.75 299.865 439.75 347.5Z" stroke="#035271" stroke-width="12" stroke-linecap="round" stroke-linejoin="round"/>
<path d="M310.375 356.125L336.25 382L392.312 325.938" stroke="#035271" stroke-width="12" stroke-linecap="round" stroke-linejoin="round"/>
</g>
</g>
<defs>
<filter id="filter0_dddd_125_1542" x="96" y="58" width="244" height="297" filterUnits="userSpaceOnUse" color-interpolation-filters="sRGB">
<feFlood flood-opacity="0" result="BackgroundImageFix"/>
<feColorMatrix in="SourceAlpha" type="matrix" values="0 0 0 0 0 0 0 0 0 0 0 0 0 0 0 0 0 0 127 0" result="hardAlpha"/>
<feOffset dy="5"/>
<feGaussianBlur stdDeviation="5.5"/>
<feColorMatrix type="matrix" values="0 0 0 0 0 0 0 0 0 0 0 0 0 0 0 0 0 0 0.1 0"/>
<feBlend mode="normal" in2="BackgroundImageFix" result="effect1_dropShadow_125_1542"/>
<feColorMatrix in="SourceAlpha" type="matrix" values="0 0 0 0 0 0 0 0 0 0 0 0 0 0 0 0 0 0 127 0" result="hardAlpha"/>
<feOffset dy="20"/>
<feGaussianBlur stdDeviation="10"/>
<feColorMatrix type="matrix" values="0 0 0 0 0 0 0 0 0 0 0 0 0 0 0 0 0 0 0.09 0"/>
<feBlend mode="normal" in2="effect1_dropShadow_125_1542" result="effect2_dropShadow_125_1542"/>
<feColorMatrix in="SourceAlpha" type="matrix" values="0 0 0 0 0 0 0 0 0 0 0 0 0 0 0 0 0 0 127 0" result="hardAlpha"/>
<feOffset dy="45"/>
<feGaussianBlur stdDeviation="13.5"/>
<feColorMatrix type="matrix" values="0 0 0 0 0 0 0 0 0 0 0 0 0 0 0 0 0 0 0.05 0"/>
<feBlend mode="normal" in2="effect2_dropShadow_125_1542" result="effect3_dropShadow_125_1542"/>
<feColorMatrix in="SourceAlpha" type="matrix" values="0 0 0 0 0 0 0 0 0 0 0 0 0 0 0 0 0 0 127 0" result="hardAlpha"/>
<feOffset dy="79"/>
<feGaussianBlur stdDeviation="16"/>
<feColorMatrix type="matrix" values="0 0 0 0 0 0 0 0 0 0 0 0 0 0 0 0 0 0 0.01 0"/>
<feBlend mode="normal" in2="effect3_dropShadow_125_1542" result="effect4_dropShadow_125_1542"/>
<feBlend mode="normal" in="SourceGraphic" in2="effect4_dropShadow_125_1542" result="shape"/>
</filter>
<filter id="filter1_dddd_125_1542" x="214" y="237" width="279" height="341" filterUnits="userSpaceOnUse" color-interpolation-filters="sRGB">
<feFlood flood-opacity="0" result="BackgroundImageFix"/>
<feColorMatrix in="SourceAlpha" type="matrix" values="0 0 0 0 0 0 0 0 0 0 0 0 0 0 0 0 0 0 127 0" result="hardAlpha"/>
<feOffset dy="6"/>
<feGaussianBlur stdDeviation="6.5"/>
<feColorMatrix type="matrix" values="0 0 0 0 0 0 0 0 0 0 0 0 0 0 0 0 0 0 0.1 0"/>
<feBlend mode="normal" in2="BackgroundImageFix" result="effect1_dropShadow_125_1542"/>
<feColorMatrix in="SourceAlpha" type="matrix" values="0 0 0 0 0 0 0 0 0 0 0 0 0 0 0 0 0 0 127 0" result="hardAlpha"/>
<feOffset dy="23"/>
<feGaussianBlur stdDeviation="11.5"/>
<feColorMatrix type="matrix" values="0 0 0 0 0 0 0 0 0 0 0 0 0 0 0 0 0 0 0.09 0"/>
<feBlend mode="normal" in2="effect1_dropShadow_125_1542" result="effect2_dropShadow_125_1542"/>
<feColorMatrix in="SourceAlpha" type="matrix" values="0 0 0 0 0 0 0 0 0 0 0 0 0 0 0 0 0 0 127 0" result="hardAlpha"/>
<feOffset dy="51"/>
<feGaussianBlur stdDeviation="15.5"/>
<feColorMatrix type="matrix" values="0 0 0 0 0 0 0 0 0 0 0 0 0 0 0 0 0 0 0.05 0"/>
<feBlend mode="normal" in2="effect2_dropShadow_125_1542" result="effect3_dropShadow_125_1542"/>
<feColorMatrix in="SourceAlpha" type="matrix" values="0 0 0 0 0 0 0 0 0 0 0 0 0 0 0 0 0 0 127 0" result="hardAlpha"/>
<feOffset dy="91"/>
<feGaussianBlur stdDeviation="18"/>
<feColorMatrix type="matrix" values="0 0 0 0 0 0 0 0 0 0 0 0 0 0 0 0 0 0 0.01 0"/>
<feBlend mode="normal" in2="effect3_dropShadow_125_1542" result="effect4_dropShadow_125_1542"/>
<feBlend mode="normal" in="SourceGraphic" in2="effect4_dropShadow_125_1542" result="shape"/>
</filter>
<clipPath id="clip0_125_1542">
<rect width="500" height="488.135" fill="white"/>
</clipPath>
</defs>
</svg>
