<svg width="363" height="178" viewBox="0 0 363 178" fill="none" xmlns="http://www.w3.org/2000/svg">
<rect x="13.6846" y="0.0427246" width="399.642" height="35.2133" transform="rotate(21.1797 13.6846 0.0427246)" fill="#FEB315"/>
<path d="M106.416 52.4153L104.342 55.5754L107.184 56.6767L106.1 59.474L102.654 58.1387L100.374 61.6309L97.3974 60.4776L99.6771 56.9854L95.6042 55.4072L93.3245 58.8995L90.3705 57.7549L92.6502 54.2626L89.271 52.9533L90.3549 50.156L94.3383 51.6994L96.4122 48.5392L93.0554 47.2386L94.1393 44.4412L98.1003 45.976L100.323 42.5646L103.277 43.7092L101.054 47.1206L105.127 48.6988L107.35 45.2874L110.326 46.4406L108.104 49.852L110.968 50.9619L109.884 53.7593L106.416 52.4153ZM103.439 51.262L99.3662 49.6838L97.2923 52.844L101.365 54.4222L103.439 51.262ZM121.963 69.9961L118.83 68.7822L115.889 55.314L111.736 66.0334L108.603 64.8195L114.664 49.1767L117.797 50.3906L120.729 63.8812L124.891 53.1394L128.024 54.3534L121.963 69.9961ZM132.249 74.1619C130.787 73.5954 129.577 72.732 128.62 71.5717C127.662 70.4114 127.06 69.0883 126.812 67.6023C126.57 66.1015 126.746 64.5827 127.342 63.046C127.932 61.5243 128.819 60.2979 130.003 59.3669C131.193 58.421 132.533 57.842 134.022 57.6297C135.511 57.4174 136.987 57.5946 138.449 58.1611C139.926 58.7334 141.136 59.5968 142.078 60.7513C143.036 61.9116 143.628 63.2393 143.855 64.7344C144.103 66.2203 143.932 67.7242 143.343 69.2459C142.747 70.7826 141.855 72.0239 140.664 72.9698C139.495 73.9066 138.166 74.4811 136.676 74.6933C135.187 74.9056 133.711 74.7284 132.249 74.1619ZM133.333 71.3646C134.273 71.7288 135.182 71.8407 136.06 71.7005C136.944 71.5453 137.74 71.1504 138.449 70.5158C139.159 69.8811 139.716 69.0416 140.12 67.9973C140.525 66.9529 140.676 65.9648 140.574 65.0329C140.477 64.0861 140.152 63.2651 139.598 62.5699C139.044 61.8747 138.296 61.345 137.357 60.9808C136.417 60.6166 135.5 60.5018 134.607 60.6363C133.729 60.7765 132.936 61.164 132.227 61.7986C131.523 62.4183 130.969 63.2503 130.564 64.2947C130.16 65.339 130.006 66.3346 130.102 67.2814C130.199 68.2282 130.521 69.0567 131.069 69.7668C131.639 70.4678 132.393 71.0004 133.333 71.3646ZM154.596 73.4262C155.413 73.9314 155.966 74.6519 156.255 75.5877C156.545 76.5235 156.51 77.4539 156.152 78.3789C155.828 79.2143 155.333 79.8719 154.667 80.3516C154.021 80.8221 153.241 81.0861 152.327 81.1435C151.412 81.201 150.425 81.0245 149.366 80.6141L142.63 78.004L148.683 62.3836L155.128 64.8809C156.187 65.2914 157.03 65.8156 157.658 66.4535C158.301 67.0973 158.698 67.8002 158.849 68.5621C159.015 69.3299 158.947 70.1017 158.647 70.8775C158.294 71.7876 157.753 72.4531 157.024 72.874C156.309 73.3007 155.5 73.4848 154.596 73.4262ZM149.318 70.0427L152.183 71.1526C152.929 71.4417 153.567 71.5001 154.097 71.328C154.632 71.1409 155.022 70.7341 155.265 70.1075C155.507 69.4809 155.494 68.9179 155.224 68.4187C154.954 67.9195 154.446 67.5254 153.7 67.2363L150.836 66.1264L149.318 70.0427ZM149.907 77.8895C150.668 78.1843 151.327 78.2336 151.883 78.0374C152.454 77.847 152.867 77.4235 153.122 76.7671C153.382 76.0957 153.36 75.4869 153.057 74.9405C152.76 74.3791 152.231 73.9511 151.47 73.6562L148.382 72.4596L146.752 76.6668L149.907 77.8895ZM162.343 85.8224C161.254 85.4004 160.341 84.8323 159.606 84.1183C158.885 83.41 158.407 82.607 158.171 81.7093C157.935 80.8115 157.995 79.8823 158.35 78.9217L161.707 80.2224C161.503 80.8813 161.53 81.4752 161.789 82.0043C162.062 82.5392 162.557 82.9453 163.273 83.2228C164.004 83.506 164.645 83.557 165.195 83.3758C165.752 83.1796 166.14 82.798 166.36 82.2311C166.539 81.7686 166.544 81.3332 166.377 80.925C166.209 80.5168 165.94 80.1468 165.571 79.815C165.223 79.4741 164.716 79.0547 164.051 78.5568C163.152 77.8654 162.437 77.2536 161.905 76.7216C161.394 76.1804 161.02 75.5293 160.783 74.7682C160.567 73.998 160.65 73.1206 161.031 72.1359C161.389 71.2109 161.933 70.4949 162.661 69.9878C163.39 69.4807 164.241 69.21 165.215 69.1757C166.195 69.1264 167.222 69.3099 168.296 69.7261C169.908 70.3505 171.06 71.2516 171.753 72.4297C172.467 73.5986 172.605 74.9044 172.166 76.3473L168.719 75.012C168.898 74.4633 168.837 73.9336 168.537 73.4228C168.258 72.9029 167.768 72.5071 167.067 72.2354C166.455 71.9984 165.902 71.9642 165.408 72.133C164.928 72.3076 164.573 72.6933 164.342 73.29C164.18 73.7078 164.178 74.1104 164.337 74.4979C164.516 74.8763 164.773 75.233 165.106 75.5681C165.46 75.8941 165.967 76.3135 166.626 76.8263C167.525 77.5178 168.238 78.137 168.764 78.684C169.289 79.231 169.668 79.8924 169.899 80.6684C170.131 81.4444 170.058 82.3172 169.683 83.287C169.359 84.1225 168.842 84.8144 168.132 85.3629C167.422 85.9114 166.565 86.2401 165.562 86.349C164.565 86.443 163.492 86.2675 162.343 85.8224ZM193.636 86.2108L191.562 89.371L194.404 90.4723L193.32 93.2696L189.874 91.9342L187.594 95.4265L184.618 94.2732L186.898 90.781L182.825 89.2028L180.545 92.6951L177.591 91.5505L179.871 88.0582L176.491 86.7489L177.575 83.9515L181.559 85.495L183.633 82.3348L180.276 81.0341L181.36 78.2368L185.321 79.7716L187.543 76.3602L190.497 77.5048L188.275 80.9162L192.348 82.4943L194.57 79.0829L197.547 80.2362L195.324 83.6476L198.189 84.7575L197.105 87.5549L193.636 86.2108ZM190.66 85.0576L186.587 83.4794L184.513 86.6396L188.586 88.2178L190.66 85.0576ZM209.184 103.792L206.05 102.578L203.11 89.1096L198.956 99.829L195.823 98.615L201.885 82.9723L205.018 84.1862L207.949 97.6768L212.112 86.935L215.245 88.1489L209.184 103.792ZM219.47 107.958C218.008 107.391 216.798 106.528 215.84 105.367C214.883 104.207 214.28 102.884 214.032 101.398C213.79 99.8971 213.967 98.3783 214.562 96.8416C215.152 95.3199 216.039 94.0935 217.223 93.1625C218.414 92.2166 219.753 91.6375 221.243 91.4253C222.732 91.213 224.208 91.3902 225.67 91.9567C227.147 92.529 228.356 93.3924 229.299 94.5469C230.256 95.7072 230.849 97.0349 231.076 98.53C231.324 100.016 231.153 101.52 230.563 103.042C229.968 104.578 229.075 105.819 227.885 106.765C226.715 107.702 225.386 108.277 223.897 108.489C222.407 108.701 220.932 108.524 219.47 107.958ZM220.554 105.16C221.494 105.524 222.402 105.636 223.28 105.496C224.164 105.341 224.961 104.946 225.67 104.311C226.379 103.677 226.936 102.837 227.341 101.793C227.745 100.749 227.897 99.7604 227.794 98.8285C227.698 97.8817 227.373 97.0607 226.818 96.3655C226.264 95.6703 225.517 95.1406 224.577 94.7764C223.637 94.4122 222.721 94.2974 221.828 94.4318C220.95 94.5721 220.156 94.9595 219.447 95.5942C218.744 96.2139 218.19 97.0459 217.785 98.0903C217.38 99.1346 217.226 100.13 217.323 101.077C217.419 102.024 217.741 102.852 218.29 103.562C218.859 104.263 219.614 104.796 220.554 105.16ZM241.817 107.222C242.633 107.727 243.186 108.447 243.476 109.383C243.765 110.319 243.731 111.249 243.373 112.174C243.049 113.01 242.554 113.667 241.887 114.147C241.242 114.618 240.462 114.882 239.547 114.939C238.633 114.997 237.646 114.82 236.587 114.41L229.851 111.8L235.903 96.1792L242.348 98.6765C243.407 99.087 244.251 99.6112 244.879 100.249C245.522 100.893 245.919 101.596 246.069 102.358C246.235 103.125 246.168 103.897 245.867 104.673C245.515 105.583 244.974 106.249 244.244 106.67C243.53 107.096 242.721 107.28 241.817 107.222ZM236.539 103.838L239.403 104.948C240.149 105.237 240.787 105.296 241.317 105.124C241.853 104.936 242.242 104.53 242.485 103.903C242.728 103.276 242.714 102.714 242.444 102.214C242.175 101.715 241.667 101.321 240.921 101.032L238.056 99.922L236.539 103.838ZM237.127 111.685C237.888 111.98 238.547 112.029 239.104 111.833C239.675 111.643 240.088 111.219 240.342 110.563C240.602 109.891 240.581 109.282 240.278 108.736C239.98 108.175 239.451 107.747 238.691 107.452L235.602 106.255L233.972 110.462L237.127 111.685ZM249.563 119.618C248.474 119.196 247.562 118.628 246.826 117.914C246.105 117.206 245.627 116.403 245.391 115.505C245.156 114.607 245.216 113.678 245.571 112.717L248.928 114.018C248.724 114.677 248.751 115.271 249.009 115.8C249.282 116.335 249.777 116.741 250.493 117.018C251.224 117.302 251.865 117.353 252.416 117.171C252.972 116.975 253.36 116.594 253.58 116.027C253.759 115.564 253.765 115.129 253.597 114.721C253.429 114.312 253.161 113.942 252.792 113.611C252.443 113.27 251.937 112.85 251.272 112.352C250.373 111.661 249.657 111.049 249.126 110.517C248.615 109.976 248.241 109.325 248.004 108.564C247.787 107.794 247.87 106.916 248.252 105.932C248.61 105.007 249.153 104.29 249.882 103.783C250.61 103.276 251.461 103.006 252.436 102.971C253.416 102.922 254.443 103.106 255.517 103.522C257.128 104.146 258.28 105.047 258.974 106.225C259.688 107.394 259.825 108.7 259.386 110.143L255.94 108.808C256.118 108.259 256.057 107.729 255.758 107.218C255.479 106.698 254.989 106.303 254.287 106.031C253.676 105.794 253.123 105.76 252.628 105.929C252.149 106.103 251.793 106.489 251.562 107.086C251.4 107.503 251.399 107.906 251.557 108.293C251.737 108.672 251.993 109.029 252.327 109.364C252.681 109.69 253.188 110.109 253.847 110.622C254.746 111.313 255.458 111.933 255.984 112.48C256.51 113.027 256.889 113.688 257.12 114.464C257.351 115.24 257.279 116.113 256.903 117.083C256.579 117.918 256.062 118.61 255.352 119.158C254.642 119.707 253.786 120.036 252.782 120.145C251.785 120.239 250.712 120.063 249.563 119.618ZM280.856 120.006L278.783 123.167L281.625 124.268L280.541 127.065L277.095 125.73L274.815 129.222L271.838 128.069L274.118 124.577L270.045 122.998L267.765 126.491L264.811 125.346L267.091 121.854L263.712 120.544L264.796 117.747L268.779 119.291L270.853 116.13L267.496 114.83L268.58 112.032L272.541 113.567L274.764 110.156L277.718 111.3L275.495 114.712L279.568 116.29L281.791 112.879L284.767 114.032L282.545 117.443L285.409 118.553L284.325 121.35L280.856 120.006ZM277.88 118.853L273.807 117.275L271.733 120.435L275.806 122.013L277.88 118.853ZM296.404 137.587L293.271 136.373L290.33 122.905L286.177 133.625L283.044 132.411L289.105 116.768L292.238 117.982L295.17 131.472L299.332 120.731L302.465 121.945L296.404 137.587ZM306.69 141.753C305.228 141.187 304.018 140.323 303.061 139.163C302.103 138.003 301.501 136.679 301.253 135.193C301.011 133.693 301.187 132.174 301.783 130.637C302.373 129.115 303.26 127.889 304.444 126.958C305.634 126.012 306.974 125.433 308.463 125.221C309.952 125.009 311.428 125.186 312.89 125.752C314.367 126.325 315.577 127.188 316.519 128.342C317.477 129.503 318.069 130.83 318.296 132.326C318.544 133.811 318.373 135.315 317.784 136.837C317.188 138.374 316.296 139.615 315.105 140.561C313.936 141.498 312.607 142.072 311.117 142.284C309.628 142.497 308.152 142.32 306.69 141.753ZM307.774 138.956C308.714 139.32 309.623 139.432 310.501 139.292C311.385 139.136 312.181 138.742 312.89 138.107C313.6 137.472 314.157 136.633 314.561 135.588C314.966 134.544 315.117 133.556 315.015 132.624C314.918 131.677 314.593 130.856 314.039 130.161C313.485 129.466 312.737 128.936 311.798 128.572C310.858 128.208 309.941 128.093 309.048 128.227C308.17 128.368 307.377 128.755 306.668 129.39C305.964 130.009 305.41 130.842 305.005 131.886C304.601 132.93 304.447 133.926 304.543 134.873C304.64 135.819 304.962 136.648 305.51 137.358C306.08 138.059 306.834 138.592 307.774 138.956ZM329.037 141.017C329.854 141.523 330.407 142.243 330.696 143.179C330.986 144.115 330.951 145.045 330.593 145.97C330.269 146.805 329.774 147.463 329.108 147.943C328.462 148.413 327.682 148.677 326.768 148.735C325.853 148.792 324.866 148.616 323.807 148.205L317.071 145.595L323.124 129.975L329.569 132.472C330.628 132.883 331.471 133.407 332.099 134.045C332.742 134.688 333.139 135.391 333.29 136.153C333.456 136.921 333.388 137.693 333.088 138.469C332.735 139.379 332.194 140.044 331.465 140.465C330.75 140.892 329.941 141.076 329.037 141.017ZM323.759 137.634L326.624 138.744C327.37 139.033 328.008 139.091 328.538 138.919C329.073 138.732 329.463 138.325 329.706 137.699C329.948 137.072 329.935 136.509 329.665 136.01C329.395 135.511 328.887 135.117 328.141 134.827L325.277 133.718L323.759 137.634ZM324.348 145.481C325.109 145.775 325.768 145.825 326.324 145.629C326.895 145.438 327.308 145.015 327.563 144.358C327.823 143.687 327.801 143.078 327.498 142.532C327.201 141.97 326.672 141.542 325.911 141.247L322.823 140.051L321.193 144.258L324.348 145.481ZM336.784 153.414C335.695 152.992 334.782 152.424 334.047 151.709C333.326 151.001 332.848 150.198 332.612 149.3C332.376 148.403 332.436 147.474 332.791 146.513L336.148 147.814C335.944 148.472 335.971 149.066 336.23 149.595C336.503 150.13 336.998 150.536 337.714 150.814C338.445 151.097 339.086 151.148 339.636 150.967C340.193 150.771 340.581 150.389 340.801 149.822C340.98 149.36 340.985 148.924 340.818 148.516C340.65 148.108 340.381 147.738 340.012 147.406C339.664 147.065 339.157 146.646 338.492 146.148C337.593 145.457 336.878 144.845 336.346 144.313C335.835 143.772 335.461 143.12 335.224 142.359C335.008 141.589 335.09 140.712 335.472 139.727C335.83 138.802 336.374 138.086 337.102 137.579C337.831 137.072 338.682 136.801 339.656 136.767C340.636 136.718 341.663 136.901 342.737 137.317C344.349 137.942 345.501 138.843 346.194 140.021C346.908 141.19 347.046 142.496 346.607 143.938L343.16 142.603C343.339 142.054 343.278 141.525 342.978 141.014C342.699 140.494 342.209 140.098 341.508 139.827C340.896 139.59 340.343 139.555 339.849 139.724C339.369 139.899 339.014 140.284 338.783 140.881C338.621 141.299 338.619 141.702 338.778 142.089C338.957 142.467 339.214 142.824 339.547 143.159C339.901 143.485 340.408 143.905 341.067 144.418C341.966 145.109 342.679 145.728 343.205 146.275C343.73 146.822 344.109 147.484 344.34 148.26C344.572 149.036 344.499 149.908 344.124 150.878C343.8 151.714 343.283 152.406 342.573 152.954C341.863 153.503 341.006 153.831 340.003 153.94C339.006 154.034 337.933 153.859 336.784 153.414Z" fill="black"/>
</svg>
