<svg width="261" height="261" viewBox="0 0 261 261" fill="none" xmlns="http://www.w3.org/2000/svg">
<path d="M22.7775 120.567C22.225 114.213 27.2338 108.75 33.6116 108.75H54.375C60.3812 108.75 65.25 113.619 65.25 119.625V222.938C65.25 228.944 60.3812 233.812 54.375 233.812H42.5953C36.9544 233.812 32.2499 229.499 31.7612 223.88L22.7775 120.567Z" stroke="#F26C1E" stroke-width="12" stroke-linecap="round" stroke-linejoin="round"/>
<path d="M97.875 116.224C97.875 111.68 100.699 107.612 104.809 105.675C113.773 101.45 129.048 92.9475 135.938 81.4565C144.817 66.6469 146.492 39.8892 146.765 33.7602C146.803 32.9023 146.778 32.0432 146.896 31.1925C148.368 20.578 168.858 32.978 176.719 46.0889C180.985 53.2044 181.532 62.553 181.083 69.8518C180.603 77.6611 178.314 85.2051 176.067 92.7001L171.281 108.666H230.316C237.527 108.666 242.741 115.557 240.781 122.497L211.58 225.893C210.257 230.578 205.982 233.812 201.115 233.812H108.75C102.744 233.812 97.875 228.944 97.875 222.938V116.224Z" stroke="#035271" stroke-width="12" stroke-linecap="round" stroke-linejoin="round"/>
</svg>
