<svg width="141" height="186" viewBox="0 0 141 186" fill="none" xmlns="http://www.w3.org/2000/svg">
<g filter="url(#filter0_dddd_45_1642)">
<path d="M24.375 15.375V107.625H116.625" stroke="#035271" stroke-width="4" stroke-linecap="round" stroke-linejoin="round"/>
<path fill-rule="evenodd" clip-rule="evenodd" d="M60.25 61.5C65.9108 61.5 70.5 56.9108 70.5 51.25C70.5 45.5892 65.9108 41 60.25 41C54.5892 41 50 45.5892 50 51.25C50 56.9108 54.5892 61.5 60.25 61.5Z" fill="#F26C1E"/>
<path fill-rule="evenodd" clip-rule="evenodd" d="M103.812 41C110.889 41 116.625 35.2636 116.625 28.1875C116.625 21.1114 110.889 15.375 103.812 15.375C96.7364 15.375 91 21.1114 91 28.1875C91 35.2636 96.7364 41 103.812 41Z" fill="#F26C1E"/>
<path fill-rule="evenodd" clip-rule="evenodd" d="M47.4375 92.25C51.6833 92.25 55.125 88.8083 55.125 84.5625C55.125 80.3167 51.6833 76.875 47.4375 76.875C43.1917 76.875 39.75 80.3167 39.75 84.5625C39.75 88.8083 43.1917 92.25 47.4375 92.25Z" fill="#F26C1E"/>
<path fill-rule="evenodd" clip-rule="evenodd" d="M93.5625 82C97.8083 82 101.25 78.5583 101.25 74.3125C101.25 70.0667 97.8083 66.625 93.5625 66.625C89.3167 66.625 85.875 70.0667 85.875 74.3125C85.875 78.5583 89.3167 82 93.5625 82Z" fill="white"/>
</g>
<defs>
<filter id="filter0_dddd_45_1642" x="-13" y="-4" width="167" height="203" filterUnits="userSpaceOnUse" color-interpolation-filters="sRGB">
<feFlood flood-opacity="0" result="BackgroundImageFix"/>
<feColorMatrix in="SourceAlpha" type="matrix" values="0 0 0 0 0 0 0 0 0 0 0 0 0 0 0 0 0 0 127 0" result="hardAlpha"/>
<feOffset dy="3"/>
<feGaussianBlur stdDeviation="3.5"/>
<feColorMatrix type="matrix" values="0 0 0 0 0 0 0 0 0 0 0 0 0 0 0 0 0 0 0.1 0"/>
<feBlend mode="normal" in2="BackgroundImageFix" result="effect1_dropShadow_45_1642"/>
<feColorMatrix in="SourceAlpha" type="matrix" values="0 0 0 0 0 0 0 0 0 0 0 0 0 0 0 0 0 0 127 0" result="hardAlpha"/>
<feOffset dy="14"/>
<feGaussianBlur stdDeviation="7"/>
<feColorMatrix type="matrix" values="0 0 0 0 0 0 0 0 0 0 0 0 0 0 0 0 0 0 0.09 0"/>
<feBlend mode="normal" in2="effect1_dropShadow_45_1642" result="effect2_dropShadow_45_1642"/>
<feColorMatrix in="SourceAlpha" type="matrix" values="0 0 0 0 0 0 0 0 0 0 0 0 0 0 0 0 0 0 127 0" result="hardAlpha"/>
<feOffset dy="30"/>
<feGaussianBlur stdDeviation="9"/>
<feColorMatrix type="matrix" values="0 0 0 0 0 0 0 0 0 0 0 0 0 0 0 0 0 0 0.05 0"/>
<feBlend mode="normal" in2="effect2_dropShadow_45_1642" result="effect3_dropShadow_45_1642"/>
<feColorMatrix in="SourceAlpha" type="matrix" values="0 0 0 0 0 0 0 0 0 0 0 0 0 0 0 0 0 0 127 0" result="hardAlpha"/>
<feOffset dy="54"/>
<feGaussianBlur stdDeviation="11"/>
<feColorMatrix type="matrix" values="0 0 0 0 0 0 0 0 0 0 0 0 0 0 0 0 0 0 0.01 0"/>
<feBlend mode="normal" in2="effect3_dropShadow_45_1642" result="effect4_dropShadow_45_1642"/>
<feBlend mode="normal" in="SourceGraphic" in2="effect4_dropShadow_45_1642" result="shape"/>
</filter>
</defs>
</svg>
