<svg width="155" height="172" viewBox="0 0 155 172" fill="none" xmlns="http://www.w3.org/2000/svg">
<g filter="url(#filter0_dddd_19_627)">
<path d="M79.0148 62.1913H68.206C66.3542 62.1913 64.853 63.6922 64.853 65.544V120.25C64.853 122.102 66.3542 123.603 68.206 123.603H79.0148C80.8666 123.603 82.3677 122.102 82.3677 120.25V65.544C82.3677 63.6922 80.8666 62.1913 79.0148 62.1913Z" fill="white" stroke="#F26C1E" stroke-linecap="round" stroke-linejoin="round"/>
<path d="M133.147 87.647H122.339C120.487 87.647 118.986 89.1482 118.986 91V120.294C118.986 122.146 120.487 123.647 122.339 123.647H133.147C134.999 123.647 136.5 122.146 136.5 120.294V91C136.5 89.1482 134.999 87.647 133.147 87.647Z" fill="white" stroke="#F26C1E" stroke-linecap="round" stroke-linejoin="round"/>
<path d="M51.7943 36.0734H40.9855C39.1337 36.0734 37.6326 37.5746 37.6326 39.4264V120.294C37.6326 122.146 39.1337 123.647 40.9855 123.647H51.7943C53.6461 123.647 55.1473 122.146 55.1473 120.294V39.4264C55.1473 37.5746 53.6461 36.0734 51.7943 36.0734Z" fill="white" stroke="#F26C1E" stroke-linecap="round" stroke-linejoin="round"/>
<path d="M106.191 4H95.3825C93.5307 4 92.0295 5.50121 92.0295 7.35299V120.25C92.0295 122.102 93.5307 123.603 95.3825 123.603H106.191C108.043 123.603 109.544 122.102 109.544 120.25V7.35299C109.544 5.50121 108.043 4 106.191 4Z" fill="white" stroke="#F26C1E" stroke-linecap="round" stroke-linejoin="round"/>
<path d="M147.089 120.118V119.103C147.089 116.959 145.35 115.221 143.206 115.221L30.8825 115.221C28.7383 115.221 27.0001 116.959 27.0001 119.103V120.118C27.0001 122.262 28.7383 124 30.8825 124H143.206C145.35 124 147.089 122.262 147.089 120.118Z" fill="white" stroke="#3764BA" stroke-width="4" stroke-linecap="round" stroke-linejoin="round"/>
</g>
<defs>
<filter id="filter0_dddd_19_627" x="0" y="0.5" width="154.089" height="171.5" filterUnits="userSpaceOnUse" color-interpolation-filters="sRGB">
<feFlood flood-opacity="0" result="BackgroundImageFix"/>
<feColorMatrix in="SourceAlpha" type="matrix" values="0 0 0 0 0 0 0 0 0 0 0 0 0 0 0 0 0 0 127 0" result="hardAlpha"/>
<feOffset dx="-1" dy="2"/>
<feGaussianBlur stdDeviation="2.5"/>
<feColorMatrix type="matrix" values="0 0 0 0 0 0 0 0 0 0 0 0 0 0 0 0 0 0 0.1 0"/>
<feBlend mode="normal" in2="BackgroundImageFix" result="effect1_dropShadow_19_627"/>
<feColorMatrix in="SourceAlpha" type="matrix" values="0 0 0 0 0 0 0 0 0 0 0 0 0 0 0 0 0 0 127 0" result="hardAlpha"/>
<feOffset dx="-3" dy="8"/>
<feGaussianBlur stdDeviation="4"/>
<feColorMatrix type="matrix" values="0 0 0 0 0 0 0 0 0 0 0 0 0 0 0 0 0 0 0.09 0"/>
<feBlend mode="normal" in2="effect1_dropShadow_19_627" result="effect2_dropShadow_19_627"/>
<feColorMatrix in="SourceAlpha" type="matrix" values="0 0 0 0 0 0 0 0 0 0 0 0 0 0 0 0 0 0 127 0" result="hardAlpha"/>
<feOffset dx="-6" dy="18"/>
<feGaussianBlur stdDeviation="5.5"/>
<feColorMatrix type="matrix" values="0 0 0 0 0 0 0 0 0 0 0 0 0 0 0 0 0 0 0.05 0"/>
<feBlend mode="normal" in2="effect2_dropShadow_19_627" result="effect3_dropShadow_19_627"/>
<feColorMatrix in="SourceAlpha" type="matrix" values="0 0 0 0 0 0 0 0 0 0 0 0 0 0 0 0 0 0 127 0" result="hardAlpha"/>
<feOffset dx="-11" dy="32"/>
<feGaussianBlur stdDeviation="7"/>
<feColorMatrix type="matrix" values="0 0 0 0 0 0 0 0 0 0 0 0 0 0 0 0 0 0 0.01 0"/>
<feBlend mode="normal" in2="effect3_dropShadow_19_627" result="effect4_dropShadow_19_627"/>
<feBlend mode="normal" in="SourceGraphic" in2="effect4_dropShadow_19_627" result="shape"/>
</filter>
</defs>
</svg>
