<svg width="500" height="489" viewBox="0 0 500 489" fill="none" xmlns="http://www.w3.org/2000/svg">
<g clip-path="url(#clip0_444_2177)">
<path fill-rule="evenodd" clip-rule="evenodd" d="M296.478 111.182C366.337 112.149 444.027 130.668 465.712 198.679C487.461 266.892 435.962 329.515 379.751 372.359C320.748 417.329 245.795 454.406 184.2 413.241C114.466 366.638 82.9338 273.486 112.557 193.792C138.886 122.958 222.472 110.158 296.478 111.182Z" fill="#FFE4D4"/>
<path fill-rule="evenodd" clip-rule="evenodd" d="M371.965 193.222C414.444 248.69 447.983 321.174 407.985 380.301C367.869 439.602 286.808 437.913 218.366 420.279C146.525 401.77 71.0129 365.846 65.2218 291.989C58.6656 208.372 112.315 125.95 193.245 99.8922C265.177 76.7311 326.965 134.461 371.965 193.222Z" fill="#FFF0E8"/>
<g filter="url(#filter0_dddd_444_2177)">
<path d="M218.417 107.875H295.125V184.583" stroke="#F26C1E" stroke-width="11" stroke-linecap="round" stroke-linejoin="round"/>
<path d="M295.125 236.491V288.687C295.125 297.766 287.766 305.125 278.687 305.125H114.312C105.234 305.125 97.875 297.766 97.875 288.687V124.312C97.875 115.234 105.234 107.875 114.312 107.875H163.625" stroke="#F26C1E" stroke-width="17" stroke-linecap="round" stroke-linejoin="round"/>
<path d="M206.356 196.637L290.187 112.806" stroke="#F26C1E" stroke-width="17" stroke-linecap="round" stroke-linejoin="round"/>
</g>
<g filter="url(#filter1_dddd_444_2177)">
<path d="M456.787 315.285L425.329 346.743C423.683 348.391 421.45 349.317 419.12 349.317C416.791 349.317 414.558 348.391 412.912 346.743L373.5 307.375V263.5H417.375L456.787 302.912C460.189 306.335 460.189 311.862 456.787 315.285Z" stroke="#035271" stroke-width="6" stroke-linejoin="round"/>
<path d="M402.188 289.094C402.188 290.802 400.802 292.188 399.094 292.188C397.385 292.188 396 290.802 396 289.094C396 287.385 397.385 286 399.094 286C400.802 286 402.188 287.385 402.188 289.094Z" fill="#333333" stroke="#035271" stroke-width="6"/>
</g>
</g>
<defs>
<filter id="filter0_dddd_444_2177" x="57" y="73" width="279" height="293" filterUnits="userSpaceOnUse" color-interpolation-filters="sRGB">
<feFlood flood-opacity="0" result="BackgroundImageFix"/>
<feColorMatrix in="SourceAlpha" type="matrix" values="0 0 0 0 0 0 0 0 0 0 0 0 0 0 0 0 0 0 127 0" result="hardAlpha"/>
<feOffset dy="1"/>
<feGaussianBlur stdDeviation="1.5"/>
<feColorMatrix type="matrix" values="0 0 0 0 0 0 0 0 0 0 0 0 0 0 0 0 0 0 0.1 0"/>
<feBlend mode="normal" in2="BackgroundImageFix" result="effect1_dropShadow_444_2177"/>
<feColorMatrix in="SourceAlpha" type="matrix" values="0 0 0 0 0 0 0 0 0 0 0 0 0 0 0 0 0 0 127 0" result="hardAlpha"/>
<feOffset dy="5"/>
<feGaussianBlur stdDeviation="2.5"/>
<feColorMatrix type="matrix" values="0 0 0 0 0 0 0 0 0 0 0 0 0 0 0 0 0 0 0.09 0"/>
<feBlend mode="normal" in2="effect1_dropShadow_444_2177" result="effect2_dropShadow_444_2177"/>
<feColorMatrix in="SourceAlpha" type="matrix" values="0 0 0 0 0 0 0 0 0 0 0 0 0 0 0 0 0 0 127 0" result="hardAlpha"/>
<feOffset dy="11"/>
<feGaussianBlur stdDeviation="3.5"/>
<feColorMatrix type="matrix" values="0 0 0 0 0 0 0 0 0 0 0 0 0 0 0 0 0 0 0.05 0"/>
<feBlend mode="normal" in2="effect2_dropShadow_444_2177" result="effect3_dropShadow_444_2177"/>
<feColorMatrix in="SourceAlpha" type="matrix" values="0 0 0 0 0 0 0 0 0 0 0 0 0 0 0 0 0 0 127 0" result="hardAlpha"/>
<feOffset dy="20"/>
<feGaussianBlur stdDeviation="4"/>
<feColorMatrix type="matrix" values="0 0 0 0 0 0 0 0 0 0 0 0 0 0 0 0 0 0 0.01 0"/>
<feBlend mode="normal" in2="effect3_dropShadow_444_2177" result="effect4_dropShadow_444_2177"/>
<feBlend mode="normal" in="SourceGraphic" in2="effect4_dropShadow_444_2177" result="shape"/>
</filter>
<filter id="filter1_dddd_444_2177" x="338" y="242" width="139" height="157" filterUnits="userSpaceOnUse" color-interpolation-filters="sRGB">
<feFlood flood-opacity="0" result="BackgroundImageFix"/>
<feColorMatrix in="SourceAlpha" type="matrix" values="0 0 0 0 0 0 0 0 0 0 0 0 0 0 0 0 0 0 127 0" result="hardAlpha"/>
<feOffset dy="2"/>
<feGaussianBlur stdDeviation="2"/>
<feColorMatrix type="matrix" values="0 0 0 0 0 0 0 0 0 0 0 0 0 0 0 0 0 0 0.18 0"/>
<feBlend mode="normal" in2="BackgroundImageFix" result="effect1_dropShadow_444_2177"/>
<feColorMatrix in="SourceAlpha" type="matrix" values="0 0 0 0 0 0 0 0 0 0 0 0 0 0 0 0 0 0 127 0" result="hardAlpha"/>
<feOffset dx="-1" dy="7"/>
<feGaussianBlur stdDeviation="3.5"/>
<feColorMatrix type="matrix" values="0 0 0 0 0 0 0 0 0 0 0 0 0 0 0 0 0 0 0.15 0"/>
<feBlend mode="normal" in2="effect1_dropShadow_444_2177" result="effect2_dropShadow_444_2177"/>
<feColorMatrix in="SourceAlpha" type="matrix" values="0 0 0 0 0 0 0 0 0 0 0 0 0 0 0 0 0 0 127 0" result="hardAlpha"/>
<feOffset dx="-3" dy="15"/>
<feGaussianBlur stdDeviation="4.5"/>
<feColorMatrix type="matrix" values="0 0 0 0 0 0 0 0 0 0 0 0 0 0 0 0 0 0 0.09 0"/>
<feBlend mode="normal" in2="effect2_dropShadow_444_2177" result="effect3_dropShadow_444_2177"/>
<feColorMatrix in="SourceAlpha" type="matrix" values="0 0 0 0 0 0 0 0 0 0 0 0 0 0 0 0 0 0 127 0" result="hardAlpha"/>
<feOffset dx="-5" dy="27"/>
<feGaussianBlur stdDeviation="5.5"/>
<feColorMatrix type="matrix" values="0 0 0 0 0 0 0 0 0 0 0 0 0 0 0 0 0 0 0.03 0"/>
<feBlend mode="normal" in2="effect3_dropShadow_444_2177" result="effect4_dropShadow_444_2177"/>
<feBlend mode="normal" in="SourceGraphic" in2="effect4_dropShadow_444_2177" result="shape"/>
</filter>
<clipPath id="clip0_444_2177">
<rect width="500" height="488.135" fill="white"/>
</clipPath>
</defs>
</svg>
