<svg width="93" height="20" viewBox="0 0 93 20" fill="none" xmlns="http://www.w3.org/2000/svg">
<path d="M0.74543 20C18.2974 6.49033 38.2145 2.73805 59.5933 5.27027C68.4418 6.3184 74.873 8.67923 81.1844 12.8234C80.7588 13.1828 80.3846 13.4352 80.0892 13.7593C78.5429 15.4558 78.6184 16.8074 80.6063 17.2375C83.5568 17.8758 86.6209 18.0125 89.645 18.2629C90.1472 18.3045 90.9874 17.9726 91.1643 17.583C91.8633 16.0439 92.7821 14.4256 92.8303 12.8131C92.8975 10.5651 93.7926 7.8769 90.6761 5.71165C89.663 7.79542 88.7673 9.63716 87.7444 11.7408C87.4019 11.5396 86.7823 11.2984 86.3183 10.8831C82.5673 7.52669 78.2295 5.14385 73.4566 3.73401C50.554 -3.03102 28.6497 -0.669623 7.93166 11.3563C5.69923 12.6521 3.74647 14.4673 1.79361 16.1886C1.01459 16.8753 0.587372 17.9613 -4.95941e-08 18.8654C0.248512 19.2436 0.496918 19.6218 0.74543 20Z" fill="#C4C4C4"/>
</svg>
